<?xml version="1.0" encoding="UTF-8" standalone="no"?>
<!-- Created with Inkscape (http://www.inkscape.org/) -->

<svg
   xmlns:dc="http://purl.org/dc/elements/1.1/"
   xmlns:cc="http://creativecommons.org/ns#"
   xmlns:rdf="http://www.w3.org/1999/02/22-rdf-syntax-ns#"
   xmlns:svg="http://www.w3.org/2000/svg"
   xmlns="http://www.w3.org/2000/svg"
   xmlns:sodipodi="http://sodipodi.sourceforge.net/DTD/sodipodi-0.dtd"
   xmlns:inkscape="http://www.inkscape.org/namespaces/inkscape"
   id="svg2"
   version="1.1"
   inkscape:version="0.92.2 (5c3e80d, 2017-08-06)"
   xml:space="preserve"
   width="961.43762"
   height="843.7453"
   viewBox="0 0 961.43762 843.7453"
   sodipodi:docname="s0_retro.svg"><metadata
     id="metadata8"><rdf:RDF><cc:Work
         rdf:about=""><dc:format>image/svg+xml</dc:format><dc:type
           rdf:resource="http://purl.org/dc/dcmitype/StillImage" /><dc:title /></cc:Work></rdf:RDF></metadata><defs
     id="defs6"><clipPath
       clipPathUnits="userSpaceOnUse"
       id="clipPath18"><path
         d="M 0,0 194,0 194,194 0,194 0,0 Z"
         id="path20"
         inkscape:connector-curvature="0" /></clipPath></defs><sodipodi:namedview
     pagecolor="#ffffff"
     bordercolor="#666666"
     borderopacity="1"
     objecttolerance="10"
     gridtolerance="10"
     guidetolerance="10"
     inkscape:pageopacity="0"
     inkscape:pageshadow="2"
     inkscape:window-width="640"
     inkscape:window-height="480"
     id="namedview4"
     showgrid="true"
     inkscape:snap-global="false"
     inkscape:current-layer="g10"
     showguides="true"
     inkscape:guide-bbox="true"
     inkscape:snap-bbox="false"
     inkscape:snap-bbox-edge-midpoints="false"
     inkscape:snap-grids="false"
     inkscape:snap-others="true"
     inkscape:snap-smooth-nodes="true"
     inkscape:object-paths="false"
     inkscape:snap-intersection-paths="false"
     inkscape:object-nodes="true"
     inkscape:snap-midpoints="true"
     inkscape:snap-object-midpoints="true"
     inkscape:snap-center="true"
     inkscape:snap-tangential="true"
     inkscape:snap-perpendicular="true"
     inkscape:snap-to-guides="false"
     fit-margin-top="10"
     fit-margin-left="10"
     fit-margin-right="10"
     fit-margin-bottom="10"><inkscape:grid
       type="xygrid"
       id="grid4194"
       enabled="false"
       originx="145.99811"
       originy="-146.15628" /></sodipodi:namedview><g
     id="g10"
     inkscape:groupmode="layer"
     inkscape:label="s0_retro"
     transform="matrix(1.25,0,0,-1.25,145.99811,989.90158)"><path
       style="color:#000000;clip-rule:nonzero;display:inline;overflow:visible;visibility:visible;opacity:1;isolation:auto;mix-blend-mode:normal;color-interpolation:sRGB;color-interpolation-filters:linearRGB;solid-color:#000000;solid-opacity:1;fill:#000000;fill-opacity:1;fill-rule:nonzero;stroke:none;stroke-width:4;stroke-linecap:square;stroke-linejoin:round;stroke-miterlimit:4;stroke-dasharray:none;stroke-dashoffset:0;stroke-opacity:1;marker:none;color-rendering:auto;image-rendering:auto;shape-rendering:auto;text-rendering:auto;enable-background:accumulate"
       d="m 170.28125,-3.0371094 0,620.8749994 620.875,0 0,-620.8749994 z m 310.4375,10.4375 c 165.68461,1.325e-4 299.99879,134.3134394 300,299.9980494 9.4e-4,165.68613 -134.31387,300.00182 -300,300.00195 -165.68613,-1.3e-4 -300.00094,-134.31582 -300,-300.00195 0.001,-165.68461 134.31539,-299.9979169 300,-299.9980494 z m -5.62109,24.7539064 c -91.24478,0 -165.21289,73.968093 -165.21289,165.212893 0,55.62017 27.4841,104.82149 69.61328,134.76172 l 133.11328,97.26953 c 15.37094,11.2474 24.49882,29.13889 24.50781,48.18554 0.0156,32.97212 -26.72907,59.71988 -59.70117,59.70118 -12.86124,-0.007 -25.30699,-4.29086 -35.66406,-11.91602 -23.62049,-17.38995 -28.84081,-38.09277 -26.18164,-59.5332 2.65912,-21.44043 19.22261,-41.5037 29.87109,-56.07617 l -42.73047,-31.22266 -90.33398,123.61914 c 41.86382,49.24428 104.2626,80.48828 173.96093,80.48828 91.24475,0 165.21291,-73.96814 165.21289,-165.21289 0,-55.62029 -27.48408,-104.81954 -69.61328,-134.75976 L 448.82617,185.40234 c -15.37834,-11.23738 -24.49882,-29.13894 -24.50781,-48.18554 -0.0156,-32.97219 26.72906,-59.72005 59.70117,-59.701175 12.86123,0.0074 25.307,4.288974 35.66406,11.914063 23.62048,17.390052 28.84077,38.094722 26.18164,59.535152 -2.65912,21.44043 -19.22263,41.50365 -29.87109,56.07618 l 42.73047,31.22265 90.33398,-123.62109 C 607.19474,63.398414 544.79596,32.154297 475.09766,32.154297 Z m 5.62109,221.919923 c 29.45139,0 53.32617,23.87478 53.32617,53.32617 0,29.45139 -23.87478,53.32617 -53.32617,53.32617 -29.45139,0 -53.32617,-23.87478 -53.32617,-53.32617 0,-29.45139 23.87478,-53.32617 53.32617,-53.32617 z"
       transform="matrix(0.8,0,0,-0.8,-116.79849,781.49158)"
       id="rect4212"
       inkscape:connector-curvature="0"
       sodipodi:nodetypes="cccccsssssssccsssscccsscssssscccssssss" /><path
       style="opacity:0.53299997;fill:none;fill-rule:evenodd;stroke:#000000;stroke-width:0.80000001px;stroke-linecap:butt;stroke-linejoin:miter;stroke-opacity:1"
       d="m 598.91406,682.58438 0.003,-3.8e-4"
       id="path4218"
       inkscape:connector-curvature="0" /><g
       id="g4222"><path
         d="m -108.79849,146.06714 c 8.36557,-13.38492 24.032012,-21.14209 44.261491,-21.14209 26.009331,0 41.523669,14.90594 41.523669,34.83121 0,18.10006 -10.951298,26.92194 -33.918601,31.33288 -17.795858,3.49833 -28.899257,4.71514 -28.899257,16.57905 0,7.75717 7.148764,13.53702 19.925277,13.53702 11.407601,0 20.685784,-4.71514 26.769838,-13.53702 l 14.145425,10.95129 c -9.734486,13.08072 -23.271506,19.16477 -41.219466,19.16477 -23.72781,0 -38.481636,-13.84122 -38.481636,-33.00599 0,-16.27484 9.734482,-24.94462 30.724468,-29.50766 19.468972,-4.25884 31.484979,-5.01934 31.484979,-17.33955 0,-8.66978 -8.365574,-15.51434 -22.206797,-15.51434 -11.711804,0 -20.685784,5.01934 -28.595054,15.81854 l -15.514336,-12.16811 z"
         style="font-style:normal;font-variant:normal;font-weight:500;font-stretch:normal;font-size:152.10134888px;line-height:100%;font-family:'Gothic 725';-inkscape-font-specification:'Gothic 725, Medium';text-align:start;letter-spacing:0px;word-spacing:0px;writing-mode:lr-tb;text-anchor:start;fill:#000000;fill-opacity:1;stroke:none;stroke-width:1px;stroke-linecap:butt;stroke-linejoin:miter;stroke-opacity:1"
         id="path4164"
         inkscape:connector-curvature="0" /><path
         d="m -22.954839,217.70688 28.8992563,0 0,-89.8919 18.7084657,0 0,89.8919 28.899257,0 0,17.49165 -76.506979,0 0,-17.49165 z"
         style="font-style:normal;font-variant:normal;font-weight:500;font-stretch:normal;font-size:152.10134888px;line-height:100%;font-family:'Gothic 725';-inkscape-font-specification:'Gothic 725, Medium';text-align:start;letter-spacing:0px;word-spacing:0px;writing-mode:lr-tb;text-anchor:start;fill:#000000;fill-opacity:1;stroke:none;stroke-width:1px;stroke-linecap:butt;stroke-linejoin:miter;stroke-opacity:1"
         id="path4166"
         inkscape:connector-curvature="0" /><path
         d="m 63.321258,127.81498 18.404263,0 0,41.82787 19.012669,0 23.1194,-41.82787 20.83789,0 -25.40093,44.26149 c 13.99333,5.47565 21.14209,15.97064 21.14209,31.18078 0,20.98998 -12.92861,31.94128 -38.93794,31.94128 l -38.177442,0 0,-107.38355 z m 18.404263,57.79851 0,32.85389 20.229479,0 c 13.08072,0 19.46897,-5.01934 19.46897,-15.97064 0,-10.9513 -6.99666,-16.88325 -20.22948,-16.88325 l -19.468969,0 z"
         style="font-style:normal;font-variant:normal;font-weight:500;font-stretch:normal;font-size:152.10134888px;line-height:100%;font-family:'Gothic 725';-inkscape-font-specification:'Gothic 725, Medium';text-align:start;letter-spacing:0px;word-spacing:0px;writing-mode:lr-tb;text-anchor:start;fill:#000000;fill-opacity:1;stroke:none;stroke-width:1px;stroke-linecap:butt;stroke-linejoin:miter;stroke-opacity:1"
         id="path4168"
         inkscape:connector-curvature="0" /><path
         d="m 208.82158,161.27728 -32.39758,0 14.44962,50.19344 c 0.76051,2.88993 1.21681,6.08406 1.52102,9.58239 0.4563,-3.95464 1.06471,-7.30087 1.82521,-9.88659 l 14.60173,-49.88924 z m 29.35556,-33.4623 -34.6791,107.38355 -21.9026,0 -33.6144,-107.38355 18.55637,0 4.86724,16.88325 42.43628,0 5.17144,-16.88325 19.16477,0 z"
         style="font-style:normal;font-variant:normal;font-weight:500;font-stretch:normal;font-size:152.10134888px;line-height:100%;font-family:'Gothic 725';-inkscape-font-specification:'Gothic 725, Medium';text-align:start;letter-spacing:0px;word-spacing:0px;writing-mode:lr-tb;text-anchor:start;fill:#000000;fill-opacity:1;stroke:none;stroke-width:1px;stroke-linecap:butt;stroke-linejoin:miter;stroke-opacity:1"
         id="path4170"
         inkscape:connector-curvature="0" /><path
         d="m 228.14144,217.70688 28.89926,0 0,-89.8919 18.70847,0 0,89.8919 28.89925,0 0,17.49165 -76.50698,0 0,-17.49165 z"
         style="font-style:normal;font-variant:normal;font-weight:500;font-stretch:normal;font-size:152.10134888px;line-height:100%;font-family:'Gothic 725';-inkscape-font-specification:'Gothic 725, Medium';text-align:start;letter-spacing:0px;word-spacing:0px;writing-mode:lr-tb;text-anchor:start;fill:#000000;fill-opacity:1;stroke:none;stroke-width:1px;stroke-linecap:butt;stroke-linejoin:miter;stroke-opacity:1"
         id="path4172"
         inkscape:connector-curvature="0" /><path
         d="m 314.34443,165.53611 c 0,-26.92193 13.38491,-40.30685 40.30685,-40.30685 26.92194,0 40.30686,13.38492 40.30686,40.30685 l 0,69.66242 -18.25216,0 0,-67.9893 c 0,-16.57905 -6.99666,-24.64042 -22.0547,-24.64042 -15.05803,0 -22.05469,8.06137 -22.05469,24.64042 l 0,67.9893 -18.25216,0 0,-69.66242 z"
         style="font-style:normal;font-variant:normal;font-weight:500;font-stretch:normal;font-size:152.10134888px;line-height:100%;font-family:'Gothic 725';-inkscape-font-specification:'Gothic 725, Medium';text-align:start;letter-spacing:0px;word-spacing:0px;writing-mode:lr-tb;text-anchor:start;fill:#000000;fill-opacity:1;stroke:none;stroke-width:1px;stroke-linecap:butt;stroke-linejoin:miter;stroke-opacity:1"
         id="path4174"
         inkscape:connector-curvature="0" /><path
         d="m 409.71389,127.81498 17.64376,0 0,93.08603 c 0.3042,-3.49834 1.06471,-6.54036 1.67311,-9.27819 l 19.31687,-83.80784 15.81854,0 19.01267,83.80784 c 0.76051,3.49833 1.36891,6.54036 1.67312,9.27819 l 0,-93.08603 17.64375,0 0,107.38355 -28.59505,0 -15.51434,-73.16075 c -0.4563,-1.97731 -0.91261,-6.08405 -1.67311,-12.62441 -0.60841,4.56304 -1.21681,8.82188 -2.12942,12.77651 l -15.81854,73.00865 -29.05136,0 0,-107.38355 z"
         style="font-style:normal;font-variant:normal;font-weight:500;font-stretch:normal;font-size:152.10134888px;line-height:100%;font-family:'Gothic 725';-inkscape-font-specification:'Gothic 725, Medium';text-align:start;letter-spacing:0px;word-spacing:0px;writing-mode:lr-tb;text-anchor:start;fill:#000000;fill-opacity:1;stroke:none;stroke-width:1px;stroke-linecap:butt;stroke-linejoin:miter;stroke-opacity:1"
         id="path4176"
         inkscape:connector-curvature="0" /><path
         d="m 563.88999,180.59415 c 0,-35.74382 15.05804,-54.45229 40.15476,-54.45229 25.24882,0 40.30686,18.86057 40.30686,54.45229 0,33.6144 -15.97064,52.93127 -40.45896,52.93127 -24.18412,0 -40.00266,-19.01267 -40.00266,-52.93127 z m 17.94796,-0.45631 c 0,24.79252 8.36558,38.02534 22.3589,38.02534 13.84122,0 22.0547,-12.77651 22.0547,-37.56903 0,-25.85723 -7.90927,-39.09005 -22.3589,-39.09005 -13.84122,0 -22.0547,13.38492 -22.0547,38.63374 z"
         style="font-style:normal;font-variant:normal;font-weight:500;font-stretch:normal;font-size:152.10134888px;line-height:100%;font-family:'Gothic 725';-inkscape-font-specification:'Gothic 725, Medium';text-align:start;letter-spacing:0px;word-spacing:0px;writing-mode:lr-tb;text-anchor:start;fill:#000000;fill-opacity:1;stroke:none;stroke-width:1px;stroke-linecap:butt;stroke-linejoin:miter;stroke-opacity:1"
         id="path4178"
         inkscape:connector-curvature="0" /></g></g></svg>