<?xml version="1.0" encoding="UTF-8" standalone="no"?>
<!-- Created with Inkscape (http://www.inkscape.org/) -->

<svg
   xmlns:dc="http://purl.org/dc/elements/1.1/"
   xmlns:cc="http://creativecommons.org/ns#"
   xmlns:rdf="http://www.w3.org/1999/02/22-rdf-syntax-ns#"
   xmlns:svg="http://www.w3.org/2000/svg"
   xmlns="http://www.w3.org/2000/svg"
   xmlns:sodipodi="http://sodipodi.sourceforge.net/DTD/sodipodi-0.dtd"
   xmlns:inkscape="http://www.inkscape.org/namespaces/inkscape"
   width="128.64102mm"
   height="31.40947mm"
   viewBox="0 0 128.64102 31.40947"
   version="1.1"
   id="svg8"
   sodipodi:docname="StratumScience2.svg"
   inkscape:version="0.92.2 (5c3e80d, 2017-08-06)">
  <defs
     id="defs2" />
  <sodipodi:namedview
     id="base"
     pagecolor="#ffffff"
     bordercolor="#666666"
     borderopacity="1.0"
     inkscape:pageopacity="0.0"
     inkscape:pageshadow="2"
     inkscape:zoom="0.35"
     inkscape:cx="400"
     inkscape:cy="560"
     inkscape:document-units="mm"
     inkscape:current-layer="layer1"
     showgrid="false"
     inkscape:snap-center="true"
     inkscape:object-paths="true"
     inkscape:snap-smooth-nodes="true"
     fit-margin-top="0"
     fit-margin-left="0"
     fit-margin-right="0"
     fit-margin-bottom="0" />
  <metadata
     id="metadata5">
    <rdf:RDF>
      <cc:Work
         rdf:about="">
        <dc:format>image/svg+xml</dc:format>
        <dc:type
           rdf:resource="http://purl.org/dc/dcmitype/StillImage" />
        <dc:title></dc:title>
      </cc:Work>
    </rdf:RDF>
  </metadata>
  <g
     inkscape:label="Layer 1"
     inkscape:groupmode="layer"
     id="layer1"
     transform="translate(63.355019,-138.87781)">
    <g
       aria-label="STRATUM"
       transform="skewX(-10.647327)"
       style="font-style:normal;font-variant:normal;font-weight:normal;font-stretch:normal;font-size:19.46612358px;line-height:12.97741795px;font-family:'Bitstream Vera Sans Mono';-inkscape-font-specification:'Bitstream Vera Sans Mono, Normal';font-variant-ligatures:normal;font-variant-caps:normal;font-variant-numeric:normal;font-feature-settings:normal;text-align:end;letter-spacing:-0.37835416px;word-spacing:0px;writing-mode:lr-tb;text-anchor:end;opacity:1;fill:black;fill-opacity:1;stroke:none;stroke-width:0.26458344px;stroke-linecap:butt;stroke-linejoin:miter;stroke-opacity:1"
       id="text5422">
      <path
         d="m -32.46069,164.14442 4.09663,-0.25663 q 0.133069,0.99802 0.541782,1.52079 0.665346,0.84594 1.900989,0.84594 0.921979,0 1.416236,-0.42772 0.503762,-0.43723 0.503762,-1.00753 0,-0.54178 -0.475247,-0.9695 -0.475247,-0.42772 -2.205147,-0.80792 -2.832473,-0.63683 -4.039601,-1.69188 -1.216632,-1.05505 -1.216632,-2.6899 0,-1.07406 0.617821,-2.02455 0.627326,-0.96 1.872474,-1.50179 1.254652,-0.55128 3.431284,-0.55128 2.670889,0 4.068116,0.99802 1.406731,0.98851 1.67287,3.15564 l -4.058611,0.23762 q -0.161584,-0.94099 -0.684356,-1.36871 -0.513267,-0.42772 -1.425741,-0.42772 -0.750891,0 -1.131089,0.32317 -0.380197,0.31366 -0.380197,0.7699 0,0.33267 0.313663,0.59881 0.304158,0.27564 1.444751,0.51326 2.822968,0.60832 4.039601,1.23565 1.226138,0.61782 1.777424,1.5398 0.560792,0.92198 0.560792,2.06257 0,1.3402 -0.741385,2.47129 -0.741386,1.13108 -2.072078,1.72039 -1.330692,0.5798 -3.355245,0.5798 -3.554849,0 -4.923561,-1.36871 -1.368711,-1.36871 -1.549305,-3.47881 z"
         style="font-style:normal;font-variant:normal;font-weight:normal;font-stretch:normal;font-family:'Arial Black';-inkscape-font-specification:'Arial Black, ';text-align:end;letter-spacing:-0.37835416px;text-anchor:end;fill:black;fill-opacity:1;stroke-width:0.26458344px"
         id="path1572"
         inkscape:connector-curvature="0" />
      <path
         d="m -18.999847,154.82007 h 13.0883068 v 3.44079 h -4.3912838 v 10.49346 h -4.305739 v -10.49346 h -4.391284 z"
         style="font-style:normal;font-variant:normal;font-weight:normal;font-stretch:normal;font-family:'Arial Black';-inkscape-font-specification:'Arial Black, ';text-align:end;letter-spacing:-0.37835416px;text-anchor:end;fill:black;fill-opacity:1;stroke-width:0.26458344px"
         id="path1574"
         inkscape:connector-curvature="0" />
      <path
         d="m -4.2748462,168.75432 v -13.93425 h 7.1762321 q 1.9960381,0 3.0510868,0.34218 1.0550487,0.34218 1.7013848,1.27366 0.6463361,0.92198 0.6463361,2.25267 0,1.15961 -0.494257,2.00555 -0.4942571,0.83643 -1.3592069,1.3592 -0.5512867,0.33268 -1.511286,0.55129 0.7699004,0.25663 1.1215833,0.51327 0.2376236,0.17109 0.6843559,0.73188 0.4562373,0.56079 0.6083164,0.86495 l 2.0815826,4.0396 H 4.564751 L 2.2645547,164.4961 Q 1.8273273,163.66917 1.4851494,163.42205 1.0194072,163.09888 0.43010069,163.09888 H 0.04990297 v 5.65544 z m 4.32474917,-8.28831 H 1.8653471 q 0.2946532,0 1.1405932,-0.1901 0.4277224,-0.0856 0.6938608,-0.43723 0.2756434,-0.35168 0.2756434,-0.80792 0,-0.67485 -0.4277225,-1.03604 -0.4277224,-0.36119 -1.6063353,-0.36119 H 0.04990297 Z"
         style="font-style:normal;font-variant:normal;font-weight:normal;font-stretch:normal;font-family:'Arial Black';-inkscape-font-specification:'Arial Black, ';text-align:end;letter-spacing:-0.37835416px;text-anchor:end;fill:black;fill-opacity:1;stroke-width:0.26458344px"
         id="path1576"
         inkscape:connector-curvature="0" />
      <path
         d="m 18.995098,166.45412 h -4.904551 l -0.67485,2.3002 H 9.0149078 l 5.2372242,-13.93425 h 4.695441 l 5.237224,13.93425 h -4.505343 z m -0.902969,-3.01306 -1.539801,-5.00911 -1.530296,5.00911 z"
         style="font-style:normal;font-variant:normal;font-weight:normal;font-stretch:normal;font-family:'Arial Black';-inkscape-font-specification:'Arial Black, ';text-align:end;letter-spacing:-0.37835416px;text-anchor:end;fill:black;fill-opacity:1;stroke-width:0.26458344px"
         id="path1578"
         inkscape:connector-curvature="0" />
      <path
         d="M 22.884464,154.82007 H 35.97277 v 3.44079 h -4.391283 v 10.49346 h -4.305739 v -10.49346 h -4.391284 z"
         style="font-style:normal;font-variant:normal;font-weight:normal;font-stretch:normal;font-family:'Arial Black';-inkscape-font-specification:'Arial Black, ';text-align:end;letter-spacing:-0.37835416px;text-anchor:end;fill:black;fill-opacity:1;stroke-width:0.26458344px"
         id="path1580"
         inkscape:connector-curvature="0" />
      <path
         d="m 46.639158,154.82007 h 4.296235 v 8.30732 q 0,1.23564 -0.389703,2.33822 -0.380198,1.09307 -1.207128,1.92 -0.817425,0.81742 -1.720395,1.15009 -1.254652,0.46575 -3.013066,0.46575 -1.017029,0 -2.224157,-0.14258 -1.197623,-0.14257 -2.005543,-0.56079 -0.80792,-0.42772 -1.482771,-1.20713 -0.665346,-0.7794 -0.912475,-1.60633 -0.399207,-1.33069 -0.399207,-2.35723 v -8.30732 h 4.296234 v 8.50693 q 0,1.14059 0.627326,1.78693 0.636831,0.63683 1.758415,0.63683 1.112078,0 1.739404,-0.62733 0.636831,-0.63683 0.636831,-1.79643 z"
         style="font-style:normal;font-variant:normal;font-weight:normal;font-stretch:normal;font-family:'Arial Black';-inkscape-font-specification:'Arial Black, ';text-align:end;letter-spacing:-0.37835416px;text-anchor:end;fill:black;fill-opacity:1;stroke-width:0.26458344px"
         id="path1582"
         inkscape:connector-curvature="0" />
      <path
         d="m 53.380012,154.82007 h 5.664946 l 2.186137,8.47841 2.176632,-8.47841 h 5.645936 v 13.93425 h -3.516828 v -10.62653 l -2.727919,10.62653 H 59.62476 l -2.718414,-10.62653 v 10.62653 h -3.526334 z"
         style="font-style:normal;font-variant:normal;font-weight:normal;font-stretch:normal;font-family:'Arial Black';-inkscape-font-specification:'Arial Black, ';text-align:end;letter-spacing:-0.37835416px;text-anchor:end;fill:black;fill-opacity:1;stroke-width:0.26458344px"
         id="path1584"
         inkscape:connector-curvature="0" />
    </g>
    <g
       id="g1570">
      <path
         inkscape:transform-center-y="12.25481"
         inkscape:transform-center-x="-3.2147923"
         inkscape:connector-curvature="0"
         id="path5403"
         d="m 45.396786,163.38744 4.721159,6.89984 a 15.723866,15.723866 0 0 0 10.076902,-4.12585 z"
         style="opacity:1;fill:black;fill-opacity:1;stroke:none;stroke-width:0.84666675;stroke-linejoin:round;stroke-miterlimit:16.39999962;stroke-dasharray:none;stroke-opacity:1" />
      <path
         id="path5401"
         d="m 40.396574,157.84979 -1.538925,8.2057 a 15.723866,15.723866 0 0 0 10.038664,4.2168 z"
         style="opacity:1;fill:black;fill-opacity:1;stroke:none;stroke-width:0.84666675;stroke-linejoin:round;stroke-miterlimit:16.39999962;stroke-dasharray:none;stroke-opacity:1"
         inkscape:connector-curvature="0" />
      <path
         inkscape:transform-center-y="-3.21453"
         inkscape:transform-center-x="-12.254808"
         inkscape:connector-curvature="0"
         id="path5395"
         d="m 61.160679,143.96899 -2.775024,14.79806 6.900355,-4.72116 a 15.723866,15.723866 0 0 0 -4.125331,-10.0769 z"
         style="opacity:1;fill:black;fill-opacity:1;stroke:none;stroke-width:0.84666675;stroke-linejoin:round;stroke-miterlimit:16.39999962;stroke-dasharray:none;stroke-opacity:1" />
      <path
         inkscape:transform-center-y="5.70405"
         inkscape:transform-center-x="-9.4782335"
         id="path5399"
         d="m 65.271024,155.26701 -12.423532,8.50025 8.206219,1.53893 a 15.723866,15.723866 0 0 0 4.217313,-10.03918 z"
         style="opacity:1;fill:black;fill-opacity:1;stroke:none;stroke-width:0.84666675;stroke-linejoin:round;stroke-miterlimit:16.39999962;stroke-dasharray:none;stroke-opacity:1"
         inkscape:connector-curvature="0" />
      <path
         inkscape:transform-center-y="-5.70404"
         inkscape:transform-center-x="9.4782307"
         id="path5393"
         d="m 38.107825,143.85892 a 15.723866,15.723866 0 0 0 -4.216797,10.03918 l 12.423531,-8.50026 z"
         style="opacity:1;fill:black;fill-opacity:1;stroke:none;stroke-width:0.84666675;stroke-linejoin:round;stroke-miterlimit:16.39999962;stroke-dasharray:none;stroke-opacity:1"
         inkscape:connector-curvature="0" />
      <path
         inkscape:transform-center-y="-9.47849"
         inkscape:transform-center-x="-5.7043043"
         inkscape:connector-curvature="0"
         id="path5391"
         d="m 50.266254,138.89281 8.499224,12.4225 1.538925,-8.20622 a 15.723866,15.723866 0 0 0 -10.038149,-4.21628 z"
         style="opacity:1;fill:black;fill-opacity:1;stroke:none;stroke-width:0.84666675;stroke-linejoin:round;stroke-miterlimit:16.39999962;stroke-dasharray:none;stroke-opacity:1" />
      <path
         inkscape:transform-center-y="-12.254825"
         inkscape:transform-center-x="3.2147887"
         inkscape:connector-curvature="0"
         id="path5253"
         d="m 49.044626,138.87781 a 15.723866,15.723866 0 0 0 -10.077421,4.12584 l 14.798061,2.77399 z"
         style="opacity:1;fill:black;fill-opacity:1;stroke:none;stroke-width:0.84666675;stroke-linejoin:round;stroke-miterlimit:16.39999962;stroke-dasharray:none;stroke-opacity:1" />
      <path
         inkscape:transform-center-y="9.47849"
         inkscape:transform-center-x="5.7040432"
         inkscape:connector-curvature="0"
         style="opacity:1;fill:black;fill-opacity:1;stroke:none;stroke-width:0.84666675;stroke-linejoin:round;stroke-miterlimit:16.39999962;stroke-dasharray:none;stroke-opacity:1"
         d="m 40.396574,157.84979 -1.538925,8.2057 a 15.723866,15.723866 0 0 0 10.038664,4.2168 z"
         id="path5405" />
      <circle
         r="1.1024867"
         cy="154.58255"
         cx="49.581024"
         id="path5407"
         style="opacity:1;fill:black;fill-opacity:1;stroke:none;stroke-width:1;stroke-linejoin:round;stroke-miterlimit:4;stroke-dasharray:none;stroke-opacity:1" />
    </g>
  </g>
</svg>
