<?xml version="1.0" encoding="UTF-8" standalone="no"?>
<!-- Created with Inkscape (http://www.inkscape.org/) -->

<svg
   xmlns:dc="http://purl.org/dc/elements/1.1/"
   xmlns:cc="http://creativecommons.org/ns#"
   xmlns:rdf="http://www.w3.org/1999/02/22-rdf-syntax-ns#"
   xmlns:svg="http://www.w3.org/2000/svg"
   xmlns="http://www.w3.org/2000/svg"
   xmlns:sodipodi="http://sodipodi.sourceforge.net/DTD/sodipodi-0.dtd"
   xmlns:inkscape="http://www.inkscape.org/namespaces/inkscape"
   width="627.58569mm"
   height="100mm"
   viewBox="0 0 2223.7288 354.3307"
   id="svg2"
   version="1.1"
   inkscape:version="0.92.2 (5c3e80d, 2017-08-06)"
   sodipodi:docname="Stratum0_furutre.svg">
  <defs
     id="defs4" />
  <sodipodi:namedview
     id="base"
     pagecolor="#ffffff"
     bordercolor="#666666"
     borderopacity="1.0"
     inkscape:pageopacity="0.0"
     inkscape:pageshadow="2"
     inkscape:zoom="0.35"
     inkscape:cx="375"
     inkscape:cy="520"
     inkscape:document-units="mm"
     inkscape:current-layer="g5556"
     showgrid="true"
     inkscape:snap-midpoints="false"
     inkscape:snap-object-midpoints="false"
     inkscape:object-paths="false"
     inkscape:object-nodes="true"
     inkscape:snap-global="true"
     inkscape:snap-text-baseline="true"
     inkscape:snap-page="true"
     inkscape:snap-bbox="true"
     inkscape:bbox-paths="true"
     showguides="true"
     inkscape:guide-bbox="true"
     fit-margin-top="0"
     fit-margin-left="0"
     fit-margin-right="0"
     fit-margin-bottom="0"
     inkscape:snap-smooth-nodes="true">
    <inkscape:grid
       type="axonomgrid"
       id="grid4648"
       units="px"
       empspacing="5"
       gridanglex="45"
       gridanglez="45"
       spacingy="1"
       originx="-345.74484"
       originy="269.48471"
       enabled="false" />
    <inkscape:grid
       type="xygrid"
       id="grid4650"
       spacingx="2.97"
       units="px"
       spacingy="2.9700001"
       enabled="false"
       originx="-38.489843"
       originy="445.77871" />
  </sodipodi:namedview>
  <metadata
     id="metadata7">
    <rdf:RDF>
      <cc:Work
         rdf:about="">
        <dc:format>image/svg+xml</dc:format>
        <dc:type
           rdf:resource="http://purl.org/dc/dcmitype/StillImage" />
        <dc:title></dc:title>
      </cc:Work>
    </rdf:RDF>
  </metadata>
  <g
     inkscape:label="Layer 1"
     inkscape:groupmode="layer"
     id="layer1"
     transform="translate(-517.74484,-358.5162)">
    <g
       id="g5556"
       transform="matrix(1.2574412,0,0,1.2574412,-227.98387,-357.6478)">
      <g
         transform="matrix(8.8953115,0,0,8.8953115,-843.02033,-1753.2841)"
         style="font-style:normal;font-variant:normal;font-weight:normal;font-stretch:normal;font-size:10px;line-height:125%;font-family:'Bitstream Vera Sans';-inkscape-font-specification:'Bitstream Vera Sans, Normal';text-align:start;letter-spacing:0px;word-spacing:0px;writing-mode:lr-tb;text-anchor:start;opacity:1;fill:#000000;fill-opacity:1;stroke:none;stroke-width:1px;stroke-linecap:butt;stroke-linejoin:miter;stroke-opacity:1"
         id="g4743">
        <path
           inkscape:connector-curvature="0"
           d="m 228.17009,270.64319 c 0,-1.98 -1.595,-3.575 -3.575,-3.575 l -12.65,0 c -1.98,0 -3.575,1.595 -3.575,3.575 l 0,4.235 c 0,1.98 1.595,3.575 3.575,3.575 l 12.65,0 c 0.33,0 0.605,0.275 0.605,0.605 l 0,4.235 c 0,0.33 -0.275,0.605 -0.605,0.605 l -12.65,0 c -0.33,0 -0.605,-0.275 -0.605,-0.605 l 0,-1.155 -2.97,0 0,1.155 c 0,1.98 1.595,3.575 3.575,3.575 l 12.65,0 c 1.98,0 3.575,-1.595 3.575,-3.575 l 0,-4.235 c 0,-1.98 -1.595,-3.575 -3.575,-3.575 l -12.65,0 c -0.33,0 -0.605,-0.275 -0.605,-0.605 l 0,-4.235 c 0,-0.33 0.275,-0.605 0.605,-0.605 l 12.65,0 c 0.33,0 0.605,0.275 0.605,0.605 l 0,1.155 2.97,0 0,-1.155 z"
           style="font-style:normal;font-variant:normal;font-weight:500;font-stretch:normal;font-size:27.5px;line-height:125%;font-family:Orbitron;-inkscape-font-specification:'Orbitron, Medium';text-align:start;writing-mode:lr-tb;text-anchor:start"
           id="path4745" />
        <path
           inkscape:connector-curvature="0"
           d="m 240.5524,273.88819 0,-2.97 -6.545,0 0,-5.225 -2.97,0 0,8.8 c 0,0 0,0 0,0 l 0,8.8 c 0,1.98 1.595,3.575 3.575,3.575 l 5.94,0 0,-2.97 -5.94,0 c -0.33,0 -0.605,-0.275 -0.605,-0.605 l 0,-9.405 6.545,0 z"
           style="font-style:normal;font-variant:normal;font-weight:500;font-stretch:normal;font-size:27.5px;line-height:125%;font-family:Orbitron;-inkscape-font-specification:'Orbitron, Medium';text-align:start;writing-mode:lr-tb;text-anchor:start"
           id="path4747" />
        <path
           inkscape:connector-curvature="0"
           d="m 245.86419,270.91819 c -1.98,0 -3.575,1.595 -3.575,3.575 l 0,8.8 c 0,0 0,0 0,0 l 0,3.575 2.97,0 0,-12.375 c 0,-0.33 0.275,-0.605 0.605,-0.605 l 8.91,0 0,-2.97 -8.91,0 z"
           style="font-style:normal;font-variant:normal;font-weight:500;font-stretch:normal;font-size:27.5px;line-height:125%;font-family:Orbitron;-inkscape-font-specification:'Orbitron, Medium';text-align:start;writing-mode:lr-tb;text-anchor:start"
           id="path4749" />
        <path
           inkscape:connector-curvature="0"
           d="m 269.17259,270.91819 -12.65,0 0,2.97 12.65,0 c 0.33,0 0.605,0.275 0.605,0.605 l 0,2.915 -13.255,0 0,5.885 c 0,1.98 1.595,3.575 3.575,3.575 l 12.65,0 0,-12.375 c 0,-1.98 -1.595,-3.575 -3.575,-3.575 z m 0.605,12.98 -9.68,0 c -0.33,0 -0.605,-0.275 -0.605,-0.605 l 0,-2.915 10.285,0 0,3.52 z"
           style="font-style:normal;font-variant:normal;font-weight:500;font-stretch:normal;font-size:27.5px;line-height:125%;font-family:Orbitron;-inkscape-font-specification:'Orbitron, Medium';text-align:start;writing-mode:lr-tb;text-anchor:start"
           id="path4751" />
        <path
           inkscape:connector-curvature="0"
           d="m 285.13247,273.88819 0,-2.97 -6.545,0 0,-5.225 -2.97,0 0,8.8 c 0,0 0,0 0,0 l 0,8.8 c 0,1.98 1.595,3.575 3.575,3.575 l 5.94,0 0,-2.97 -5.94,0 c -0.33,0 -0.605,-0.275 -0.605,-0.605 l 0,-9.405 6.545,0 z"
           style="font-style:normal;font-variant:normal;font-weight:500;font-stretch:normal;font-size:27.5px;line-height:125%;font-family:Orbitron;-inkscape-font-specification:'Orbitron, Medium';text-align:start;writing-mode:lr-tb;text-anchor:start"
           id="path4753" />
        <path
           inkscape:connector-curvature="0"
           d="m 300.15177,270.91819 0,12.375 c 0,0.33 -0.275,0.605 -0.605,0.605 l -9.075,0 c -0.33,0 -0.605,-0.275 -0.605,-0.605 l 0,-12.375 -2.97,0 0,12.375 c 0,1.98 1.595,3.575 3.575,3.575 l 9.075,0 c 1.98,0 3.575,-1.595 3.575,-3.575 l 0,-12.375 -2.97,0 z"
           style="font-style:normal;font-variant:normal;font-weight:500;font-stretch:normal;font-size:27.5px;line-height:125%;font-family:Orbitron;-inkscape-font-specification:'Orbitron, Medium';text-align:start;writing-mode:lr-tb;text-anchor:start"
           id="path4755" />
        <path
           inkscape:connector-curvature="0"
           d="m 325.88575,270.91819 -20.3775,0 0,15.95 2.97,0 0,-12.375 c 0,-0.33 0.275,-0.605 0.605,-0.605 l 6.325,0 c 0.33,0 0.605,0.275 0.605,0.605 l 0,12.375 2.97,0 0,-12.375 c 0,-0.33 0.275,-0.605 0.605,-0.605 l 6.2975,0 c 0.3575,0 0.6325,0.275 0.6325,0.605 l 0,12.375 2.9425,0 0,-12.375 c 0,-1.98 -1.595,-3.575 -3.575,-3.575 z"
           style="font-style:normal;font-variant:normal;font-weight:500;font-stretch:normal;font-size:27.5px;line-height:125%;font-family:Orbitron;-inkscape-font-specification:'Orbitron, Medium';text-align:start;writing-mode:lr-tb;text-anchor:start"
           id="path4757" />
        <path
           inkscape:connector-curvature="0"
           d="m 344.02415,267.06819 c -1.98,0 -3.575,1.595 -3.575,3.575 l 0,12.65 c 0,1.98 1.595,3.575 3.575,3.575 l 12.65,0 c 1.98,0 3.575,-1.595 3.575,-3.575 l 0,-12.65 c 0,-1.98 -1.595,-3.575 -3.575,-3.575 l -12.65,0 z m 12.265,2.97 -12.87,10.8075 0,-10.2025 c 0,-0.33 0.275,-0.605 0.605,-0.605 l 12.265,0 z m -11.88,13.86 12.87,-10.8075 0,10.2025 c 0,0.33 -0.275,0.605 -0.605,0.605 l -12.265,0 z"
           style="font-style:normal;font-variant:normal;font-weight:500;font-stretch:normal;font-size:27.5px;line-height:125%;font-family:Orbitron;-inkscape-font-specification:'Orbitron, Medium';text-align:start;writing-mode:lr-tb;text-anchor:start"
           id="path4759" />
      </g>
      <g
         transform="matrix(5,0,0,5,-2556.9342,-3412.7377)"
         style="opacity:1"
         id="g5185">
        <g
           id="g5070"
           transform="translate(552.9447,1.4852813)">
          <path
             id="path5072"
             style="font-style:normal;font-variant:normal;font-weight:500;font-stretch:normal;font-size:27.5px;line-height:125%;font-family:Orbitron;-inkscape-font-specification:'Orbitron, Medium';text-align:start;letter-spacing:0px;word-spacing:0px;writing-mode:lr-tb;text-anchor:start;fill:#000000;fill-opacity:1;stroke:none;stroke-width:1px;stroke-linecap:butt;stroke-linejoin:miter;stroke-opacity:1"
             d="m 122.84505,811.89654 c 0,-3.52254 -2.8376,-6.36014 -6.36015,-6.36014 l -22.505133,0 c -3.522544,0 -6.360148,2.8376 -6.360148,6.36014 l 0,7.53433 c 0,3.52255 2.837604,6.36015 6.360148,6.36015 l 22.505133,0 c 0.5871,0 1.07634,0.48924 1.07634,1.07633 l 0,7.53433 c 0,0.58709 -0.48924,1.07633 -1.07634,1.07633 l -22.505133,0 c -0.587091,0 -1.076333,-0.48924 -1.076333,-1.07633 l 0,-2.05481 -5.283815,0 0,2.05481 c 0,3.52255 2.837604,6.36015 6.360148,6.36015 l 22.505133,0 c 3.52255,0 6.36015,-2.8376 6.36015,-6.36015 l 0,-7.53433 c 0,-3.52254 -2.8376,-6.36014 -6.36015,-6.36014 l -22.505133,0 c -0.587091,0 -1.076333,-0.48925 -1.076333,-1.07634 l 0,-7.53433 c 0,-0.58709 0.489242,-1.07633 1.076333,-1.07633 l 22.505133,0 c 0.5871,0 1.07634,0.48924 1.07634,1.07633 l 0,2.05482 5.28381,0 0,-2.05482 z"
             inkscape:connector-curvature="0" />
          <path
             style="color:#000000;font-style:normal;font-variant:normal;font-weight:normal;font-stretch:normal;font-size:medium;line-height:normal;font-family:sans-serif;text-indent:0;text-align:start;text-decoration:none;text-decoration-line:none;text-decoration-style:solid;text-decoration-color:#000000;letter-spacing:normal;word-spacing:normal;text-transform:none;direction:ltr;block-progression:tb;writing-mode:lr-tb;baseline-shift:baseline;text-anchor:start;white-space:normal;clip-rule:nonzero;display:inline;overflow:visible;visibility:visible;opacity:1;isolation:auto;mix-blend-mode:normal;color-interpolation:sRGB;color-interpolation-filters:linearRGB;solid-color:#000000;solid-opacity:1;fill:#000000;fill-opacity:1;fill-rule:evenodd;stroke:none;stroke-width:2.15199995;stroke-linecap:butt;stroke-linejoin:round;stroke-miterlimit:4;stroke-dasharray:none;stroke-dashoffset:0;stroke-opacity:1;color-rendering:auto;image-rendering:auto;shape-rendering:auto;text-rendering:auto;enable-background:accumulate"
             d="m 101.8417,812.99511 c -0.9759,-4.6e-4 -1.44843,1.19403 -0.73633,1.86133 l 3.38867,3.18359 c 0.41429,0.3897 1.06032,0.3897 1.47461,0 l 3.39063,-3.18359 c 0.7128,-0.66795 0.23857,-1.86356 -0.73828,-1.86133 z"
             id="path5074"
             inkscape:connector-curvature="0"
             sodipodi:nodetypes="ccccccc" />
          <path
             sodipodi:nodetypes="ccccccc"
             inkscape:connector-curvature="0"
             id="path5076"
             d="m 108.62297,833.30311 c 0.9759,4.6e-4 1.44843,-1.19403 0.73633,-1.86133 l -3.38867,-3.18359 c -0.41429,-0.3897 -1.06032,-0.3897 -1.47461,0 l -3.39063,3.18359 c -0.7128,0.66795 -0.23857,1.86356 0.73828,1.86133 z"
             style="color:#000000;font-style:normal;font-variant:normal;font-weight:normal;font-stretch:normal;font-size:medium;line-height:normal;font-family:sans-serif;text-indent:0;text-align:start;text-decoration:none;text-decoration-line:none;text-decoration-style:solid;text-decoration-color:#000000;letter-spacing:normal;word-spacing:normal;text-transform:none;direction:ltr;block-progression:tb;writing-mode:lr-tb;baseline-shift:baseline;text-anchor:start;white-space:normal;clip-rule:nonzero;display:inline;overflow:visible;visibility:visible;opacity:1;isolation:auto;mix-blend-mode:normal;color-interpolation:sRGB;color-interpolation-filters:linearRGB;solid-color:#000000;solid-opacity:1;fill:#000000;fill-opacity:1;fill-rule:evenodd;stroke:none;stroke-width:2.15199995;stroke-linecap:butt;stroke-linejoin:round;stroke-miterlimit:4;stroke-dasharray:none;stroke-dashoffset:0;stroke-opacity:1;color-rendering:auto;image-rendering:auto;shape-rendering:auto;text-rendering:auto;enable-background:accumulate" />
        </g>
        <path
           inkscape:connector-curvature="0"
           id="path5112-4"
           d="m 646.92508,796.45569 c -9.28461,0 -16.92827,7.63714 -16.92773,16.92578 l 0,22.50586 c 0,9.28805 7.64289,16.92578 16.92773,16.92578 l 22.50391,0 c 9.28483,0 16.92773,-7.63773 16.92773,-16.92578 l 0,-22.50586 c 0,-9.28806 -7.64291,-16.92578 -16.92773,-16.92578 l -22.50391,0 z m 0,5.2832 22.50391,0 c 6.35946,0 11.64453,5.28116 11.64453,11.64258 l 0,22.50586 c 0,6.36143 -5.28505,11.64257 -11.64453,11.64257 l -22.50391,0 c -6.35948,0 -11.64453,-5.28114 -11.64453,-11.64257 l 0,-22.50586 c -3.7e-4,-6.3618 5.28507,-11.64258 11.64453,-11.64258 z"
           style="font-style:normal;font-variant:normal;font-weight:500;font-stretch:normal;font-size:27.5px;line-height:125%;font-family:Orbitron;-inkscape-font-specification:'Orbitron, Medium';text-align:start;letter-spacing:0px;word-spacing:0px;writing-mode:lr-tb;text-anchor:start;opacity:1;fill:#000000;fill-opacity:1;stroke:none;stroke-width:1px;stroke-linecap:butt;stroke-linejoin:miter;stroke-opacity:1" />
      </g>
    </g>
  </g>
</svg>
