<?xml version="1.0" encoding="UTF-8" standalone="no"?>
<!-- Created with Inkscape (http://www.inkscape.org/) -->

<svg
   xmlns:dc="http://purl.org/dc/elements/1.1/"
   xmlns:cc="http://creativecommons.org/ns#"
   xmlns:rdf="http://www.w3.org/1999/02/22-rdf-syntax-ns#"
   xmlns:svg="http://www.w3.org/2000/svg"
   xmlns="http://www.w3.org/2000/svg"
   xmlns:sodipodi="http://sodipodi.sourceforge.net/DTD/sodipodi-0.dtd"
   xmlns:inkscape="http://www.inkscape.org/namespaces/inkscape"
   width="122.88889mm"
   height="180.01584mm"
   viewBox="0 0 435.43306 637.85139"
   id="svg4853"
   version="1.1"
   inkscape:version="0.92.2 (5c3e80d, 2017-08-06)"
   sodipodi:docname="stratum0_bank.svg"
   inkscape:export-filename="/home/rohieb/Documents/Hackerspace/Logos/stratum0_blank.png"
   inkscape:export-xdpi="99.947159"
   inkscape:export-ydpi="99.947159">
  <defs
     id="defs4855" />
  <sodipodi:namedview
     id="base"
     pagecolor="#ffffff"
     bordercolor="#666666"
     borderopacity="1.0"
     inkscape:pageopacity="0.0"
     inkscape:pageshadow="2"
     inkscape:zoom="0.35"
     inkscape:cx="375"
     inkscape:cy="520"
     inkscape:document-units="px"
     inkscape:current-layer="layer1"
     showgrid="false"
     showguides="true"
     inkscape:guide-bbox="true"
     inkscape:object-nodes="true"
     inkscape:snap-smooth-nodes="true"
     fit-margin-top="5"
     fit-margin-left="5"
     fit-margin-right="5"
     fit-margin-bottom="5" />
  <metadata
     id="metadata4858">
    <rdf:RDF>
      <cc:Work
         rdf:about="">
        <dc:format>image/svg+xml</dc:format>
        <dc:type
           rdf:resource="http://purl.org/dc/dcmitype/StillImage" />
        <dc:title></dc:title>
      </cc:Work>
    </rdf:RDF>
  </metadata>
  <g
     inkscape:label="Layer 1"
     inkscape:groupmode="layer"
     id="layer1"
     transform="translate(-182.28346,-373.5065)">
    <path
       style="fill:#e60005;fill-opacity:1;fill-rule:nonzero;stroke:none"
       id="path7445"
       d="m 399.99998,391.22304 c -9.19456,0 -18.13575,1.91711 -26.24436,5.42987 -8.14478,3.4389 -14.69681,7.60182 -20.81448,13.57465 -6.00902,6.00909 -10.9683,13.6833 -14.47962,21.7195 -3.43891,8.10858 -5.42987,16.14478 -5.42987,25.33935 0,9.19458 1.99241,18.13575 5.42987,26.24434 3.51132,8 8.4706,14.84164 14.47962,20.81448 6.11767,6.04525 12.6697,10.96834 20.81448,14.47964 8.10861,3.43893 17.0498,5.42986 26.24436,5.42986 9.267,0 18.13571,-1.99239 26.24436,-5.42986 8.03624,-3.5113 14.84162,-8.43439 20.81441,-14.47964 6.00905,-5.97284 10.96842,-12.81448 14.47971,-20.81448 3.43889,-8.10859 5.42983,-17.04976 5.42983,-26.24434 0,-9.19457 -1.9924,-17.23077 -5.42983,-25.33935 -3.51129,-8.0362 -8.47066,-15.71041 -14.47971,-21.7195 -5.97279,-5.97283 -12.77817,-10.13575 -20.81441,-13.57465 -8.10865,-3.51132 -16.97736,-5.42987 -26.24436,-5.42987 z M 266.06334,564.97872 c -9.19457,0 -17.23077,1.01358 -25.33937,4.52488 -8.10859,3.4751 -15.6742,8.47059 -21.71945,14.47963 -6.00905,6.00907 -10.13574,13.61086 -13.57465,21.71947 C 201.91855,613.73891 200,621.8475 200,631.04206 l 0,146.60633 306.78736,0 0,40.72397 -306.78736,0 0,7.23982 0,19.00452 c 0,9.23077 1.95475,18.13574 5.42987,26.24434 3.43891,8.10865 7.60179,14.76922 13.57465,20.81453 6.04525,5.97279 13.61086,11.00445 21.71945,14.4796 8.1086,3.51129 16.1448,5.42982 25.33937,5.42982 l 267.87324,0 c 9.19458,0 17.23082,-1.91706 25.33936,-5.42982 8.1449,-3.47515 15.7466,-8.50681 21.71951,-14.4796 6.0452,-6.04531 10.9683,-12.70588 14.4796,-20.81453 C 598.98646,862.75244 600,853.84747 600,844.6167 l 0,-19.00452 0,-127.60178 -306.78734,0 0,-39.81903 306.78734,0 0,-27.14931 c 0,-9.19456 -0.97593,-17.30315 -4.52495,-25.33936 -3.47504,-8.10861 -8.4344,-15.7104 -14.4796,-21.71947 -5.97291,-6.00904 -13.57461,-11.00453 -21.71951,-14.47963 -8.10854,-3.5113 -16.14478,-4.52488 -25.33936,-4.52488 l -267.87324,0 z"
       inkscape:connector-curvature="0" />
    <g
       style="font-style:normal;font-variant:normal;font-weight:normal;font-stretch:normal;font-size:30px;line-height:125%;font-family:Helvetica;-inkscape-font-specification:'Helvetica, Normal';text-align:start;letter-spacing:0px;word-spacing:0px;writing-mode:lr-tb;text-anchor:start;fill:#e60005;fill-opacity:1;stroke:none;stroke-width:1px;stroke-linecap:butt;stroke-linejoin:miter;stroke-opacity:1"
       id="text5565"
       transform="matrix(2.43928,0,0,2.43928,-395.27796,-1345.4919)">
      <path
         d="m 260.56839,943.13415 c -0.12,-2.37 -0.87,-6.87 -8.4,-6.87 -5.22,0 -7.41,3.3 -7.41,6.66 0,3.75 3.18,4.74 4.59,5.07 l 4.41,1.02 c 3.54,0.84 4.59,1.56 4.59,3.81 0,3.09 -3.54,3.63 -5.64,3.63 -2.76,0 -5.94,-1.14 -5.94,-5.04 l -2.73,0 c 0,2.01 0.36,3.81 2.19,5.46 0.96,0.87 2.52,2.07 6.51,2.07 3.69,0 8.43,-1.41 8.43,-6.51 0,-3.42 -2.1,-5.1 -4.89,-5.76 l -6.15,-1.41 c -1.26,-0.3 -2.55,-0.9 -2.55,-2.73 0,-3.27 3.09,-3.78 4.92,-3.78 2.43,0 5.19,1.05 5.34,4.38 l 2.73,0 z"
         id="path4159"
         inkscape:connector-curvature="0" />
      <path
         d="m 263.02745,939.41415 7.29,0 0,18.96 2.91,0 0,-18.96 7.29,0 0,-2.58 -17.49,0 0,2.58 z"
         id="path4161"
         inkscape:connector-curvature="0" />
      <path
         d="m 286.4973,949.13415 7.05,0 c 3.48,0 3.84,2.07 3.84,3.84 0,0.81 0.09,4.08 0.51,5.4 l 3.57,0 0,-0.48 c -0.9,-0.51 -1.05,-0.96 -1.08,-2.16 l -0.18,-3.9 c -0.12,-3 -1.35,-3.54 -2.58,-4.05 1.38,-0.81 3,-1.98 3,-5.16 0,-4.56 -3.54,-5.79 -7.08,-5.79 l -9.96,0 0,21.54 2.91,0 0,-9.24 z m 0,-9.81 7.26,0 c 1.44,0 3.87,0.27 3.87,3.6 0,3.18 -2.25,3.72 -4.38,3.72 l -6.75,0 0,-7.32 z"
         id="path4163"
         inkscape:connector-curvature="0" />
      <path
         d="m 316.93698,952.10415 2.13,6.27 3.18,0 -7.8,-21.54 -3.3,0 -8.1,21.54 3,0 2.25,-6.27 8.64,0 z m -7.74,-2.58 3.45,-9.48 0.06,0 3.18,9.48 -6.69,0 z"
         id="path4165"
         inkscape:connector-curvature="0" />
      <path
         d="m 319.51183,939.41415 7.29,0 0,18.96 2.91,0 0,-18.96 7.29,0 0,-2.58 -17.49,0 0,2.58 z"
         id="path4167"
         inkscape:connector-curvature="0" />
      <path
         d="m 353.84167,936.83415 0,13.62 c 0,4.68 -3,5.91 -5.67,5.91 -2.61,0 -5.46,-1.29 -5.46,-5.97 l 0,-13.56 -2.91,0 0,14.37 c 0,4.02 2.49,7.74 8.28,7.74 5.91,0 8.67,-3.72 8.67,-8.13 l 0,-13.98 -2.91,0 z"
         id="path4169"
         inkscape:connector-curvature="0" />
      <path
         d="m 381.94136,958.37415 0,-21.54 -4.14,0 -6.12,18.21 -0.06,0 -6.15,-18.21 -4.17,0 0,21.54 2.82,0 0,-12.72 c 0,-0.63 -0.06,-3.36 -0.06,-5.34 l 0.06,0 6.06,18.06 2.88,0 6.06,-18.09 0.06,0 c 0,2.01 -0.06,4.74 -0.06,5.37 l 0,12.72 2.82,0 z"
         id="path4171"
         inkscape:connector-curvature="0" />
      <path
         d="m 405.2012,948.11415 c 0,5.28 -1.38,8.46 -4.41,8.46 -3.03,0 -4.41,-3.18 -4.41,-8.46 0,-5.28 1.38,-8.46 4.41,-8.46 3.03,0 4.41,3.18 4.41,8.46 z m 2.82,0 c 0,-4.38 -1.17,-10.83 -7.23,-10.83 -6.06,0 -7.23,6.45 -7.23,10.83 0,4.38 1.17,10.83 7.23,10.83 6.06,0 7.23,-6.45 7.23,-10.83 z"
         id="path4173"
         inkscape:connector-curvature="0" />
    </g>
  </g>
</svg>
