<?xml version="1.0" encoding="UTF-8" standalone="no"?>
<!-- Created with Inkscape (http://www.inkscape.org/) -->

<svg
   xmlns:dc="http://purl.org/dc/elements/1.1/"
   xmlns:cc="http://creativecommons.org/ns#"
   xmlns:rdf="http://www.w3.org/1999/02/22-rdf-syntax-ns#"
   xmlns:svg="http://www.w3.org/2000/svg"
   xmlns="http://www.w3.org/2000/svg"
   xmlns:sodipodi="http://sodipodi.sourceforge.net/DTD/sodipodi-0.dtd"
   xmlns:inkscape="http://www.inkscape.org/namespaces/inkscape"
   width="213.97156"
   height="216.06883"
   id="svg2869"
   version="1.1"
   inkscape:version="0.48.2 r9819"
   sodipodi:docname="FreifunkBS_avatar.svg">
  <defs
     id="defs2871">
    <inkscape:path-effect
       effect="spiro"
       id="path-effect5523"
       is_visible="true" />
    <inkscape:path-effect
       effect="spiro"
       id="path-effect5517"
       is_visible="true" />
    <inkscape:path-effect
       effect="spiro"
       id="path-effect5104"
       is_visible="true" />
    <inkscape:path-effect
       is_visible="true"
       id="path-effect5100"
       effect="spiro" />
    <inkscape:path-effect
       effect="spiro"
       id="path-effect5096"
       is_visible="true" />
    <inkscape:perspective
       sodipodi:type="inkscape:persp3d"
       inkscape:vp_x="0 : 526.18109 : 1"
       inkscape:vp_y="0 : 1000 : 0"
       inkscape:vp_z="744.09448 : 526.18109 : 1"
       inkscape:persp3d-origin="372.04724 : 350.78739 : 1"
       id="perspective2877" />
    <inkscape:perspective
       id="perspective2887"
       inkscape:persp3d-origin="0.5 : 0.33333333 : 1"
       inkscape:vp_z="1 : 0.5 : 1"
       inkscape:vp_y="0 : 1000 : 0"
       inkscape:vp_x="0 : 0.5 : 1"
       sodipodi:type="inkscape:persp3d" />
    <inkscape:path-effect
       effect="spiro"
       id="path-effect2972"
       is_visible="true" />
    <inkscape:path-effect
       effect="spiro"
       id="path-effect2976"
       is_visible="true" />
    <inkscape:path-effect
       effect="spiro"
       id="path-effect2980"
       is_visible="true" />
    <inkscape:path-effect
       effect="spiro"
       id="path-effect2984"
       is_visible="true" />
    <inkscape:path-effect
       effect="spiro"
       id="path-effect2988"
       is_visible="true" />
    <inkscape:path-effect
       effect="spiro"
       id="path-effect2992"
       is_visible="true" />
    <inkscape:path-effect
       is_visible="true"
       id="path-effect4952"
       effect="spiro" />
    <inkscape:path-effect
       effect="spiro"
       id="path-effect4950"
       is_visible="true" />
    <inkscape:path-effect
       is_visible="true"
       id="path-effect4723"
       effect="spiro" />
    <inkscape:path-effect
       effect="spiro"
       id="path-effect3258"
       is_visible="true" />
    <inkscape:path-effect
       is_visible="true"
       id="path-effect3098"
       effect="spiro" />
    <inkscape:path-effect
       effect="spiro"
       id="path-effect3146"
       is_visible="true" />
    <inkscape:path-effect
       effect="spiro"
       id="path-effect3142"
       is_visible="true" />
    <inkscape:path-effect
       effect="spiro"
       id="path-effect3138"
       is_visible="true" />
    <inkscape:path-effect
       effect="spiro"
       id="path-effect3134"
       is_visible="true" />
    <inkscape:path-effect
       effect="spiro"
       id="path-effect3130"
       is_visible="true" />
    <inkscape:path-effect
       effect="spiro"
       id="path-effect3126"
       is_visible="true" />
    <inkscape:path-effect
       effect="spiro"
       id="path-effect3122"
       is_visible="true" />
    <inkscape:path-effect
       effect="spiro"
       id="path-effect3118"
       is_visible="true" />
    <inkscape:path-effect
       effect="spiro"
       id="path-effect3114"
       is_visible="true" />
    <inkscape:path-effect
       effect="spiro"
       id="path-effect3110"
       is_visible="true" />
    <inkscape:path-effect
       effect="spiro"
       id="path-effect3102"
       is_visible="true" />
    <inkscape:path-effect
       is_visible="true"
       id="path-effect3291"
       effect="spiro" />
    <inkscape:path-effect
       is_visible="true"
       id="path-effect2992-9"
       effect="spiro" />
    <inkscape:path-effect
       is_visible="true"
       id="path-effect2988-9"
       effect="spiro" />
    <inkscape:path-effect
       is_visible="true"
       id="path-effect2984-7"
       effect="spiro" />
    <inkscape:path-effect
       is_visible="true"
       id="path-effect2980-8"
       effect="spiro" />
    <inkscape:path-effect
       is_visible="true"
       id="path-effect2976-7"
       effect="spiro" />
    <inkscape:path-effect
       is_visible="true"
       id="path-effect2972-7"
       effect="spiro" />
    <inkscape:perspective
       sodipodi:type="inkscape:persp3d"
       inkscape:vp_x="0 : 0.5 : 1"
       inkscape:vp_y="0 : 1000 : 0"
       inkscape:vp_z="1 : 0.5 : 1"
       inkscape:persp3d-origin="0.5 : 0.33333333 : 1"
       id="perspective2887-6" />
    <inkscape:perspective
       id="perspective2877-5"
       inkscape:persp3d-origin="372.04724 : 350.78739 : 1"
       inkscape:vp_z="744.09448 : 526.18109 : 1"
       inkscape:vp_y="0 : 1000 : 0"
       inkscape:vp_x="0 : 526.18109 : 1"
       sodipodi:type="inkscape:persp3d" />
    <inkscape:path-effect
       effect="spiro"
       id="path-effect5523-8"
       is_visible="true" />
    <inkscape:path-effect
       effect="spiro"
       id="path-effect5523-8-8"
       is_visible="true" />
  </defs>
  <sodipodi:namedview
     id="base"
     pagecolor="#ffffff"
     bordercolor="#ffffff"
     borderopacity="0.0"
     inkscape:pageopacity="1"
     inkscape:pageshadow="0"
     inkscape:zoom="2.9587286"
     inkscape:cx="106.98578"
     inkscape:cy="108.03441"
     inkscape:document-units="px"
     inkscape:current-layer="layer1"
     showgrid="false"
     showborder="true"
     inkscape:window-width="1152"
     inkscape:window-height="856"
     inkscape:window-x="240"
     inkscape:window-y="18"
     inkscape:window-maximized="0"
     showguides="true"
     inkscape:guide-bbox="true"
     fit-margin-top="0"
     fit-margin-left="0"
     fit-margin-right="0"
     fit-margin-bottom="0" />
  <metadata
     id="metadata2874">
    <rdf:RDF>
      <cc:Work
         rdf:about="">
        <dc:format>image/svg+xml</dc:format>
        <dc:type
           rdf:resource="http://purl.org/dc/dcmitype/StillImage" />
        <dc:title></dc:title>
      </cc:Work>
    </rdf:RDF>
  </metadata>
  <g
     inkscape:label="Layer 1"
     inkscape:groupmode="layer"
     id="layer1"
     transform="translate(-146.65826,-1722.8501)">
    <path
       style="fill:#1a181d;fill-opacity:1;fill-rule:nonzero;stroke:none"
       d="m 244.375,69.125 -3.6875,26.0625 0,8.90625 -0.4375,-0.0312 -1.3125,-8.5625 -3.40625,15.46875 0,13.9375 1,1.75 0,61.0625 62.96875,0 c 13.54379,-9.84755 24.48819,-23.11256 31.5625,-38.5625 l -14.375,-10.21875 -9.78125,0 -2.375,-20.25 -2,20.25 -27.3125,0 -2.28125,-19.40625 -1.90625,19.40625 -19.25,0 0,-15.6875 1.40625,-3.78125 0,-7.78125 -2.53125,-15.78125 -1.46875,8.46875 -0.875,-0.28125 -0.15625,-8.0625 L 244.375,69.125 z m -1.03125,26.75 2.15625,0 0,5.625 -2.15625,0 0,-5.625 z"
       transform="translate(10.894098,1722.8989)"
       id="path5354"
       inkscape:connector-curvature="0" />
    <path
       style="fill:#1a181d;fill-opacity:1;fill-rule:nonzero;stroke:none"
       d="m 203.84375,130 -4.8125,6.0625 -0.0625,17.09375 -4.0625,-8.125 -42.96875,-1.90625 c 2.36897,6.23978 5.35547,12.16653 8.875,17.71875 0.9976,0.35802 1.82041,1.35652 1.8125,1.375 l 0,1.40625 c 14.63366,21.44725 37.48346,36.74738 63.96875,41.21875 l 0,-23.65625 c -0.40631,-2.8444 -0.8125,-17.875 -0.8125,-17.875 l -8.9375,-9.34375 -8.125,0 -0.375,-17.5625 -4.5,-6.40625 z m -3.1875,8.96875 1.25,0 0,3.96875 -1.25,0 0,-3.96875 z m 2.46875,0 1.21875,0 0,3.96875 -1.21875,0 0,-3.96875 z m 2.53125,0 1.21875,0 0,3.96875 -1.21875,0 0,-3.96875 z m 6.625,26.4375 3.84375,0 0,5.625 -3.84375,0 0,-5.625 z m 6.375,0 3.875,0 0,5.625 -3.875,0 0,-5.625 z"
       transform="translate(10.894098,1722.8989)"
       id="path5356"
       inkscape:connector-curvature="0" />
    <rect
       y="1904.3782"
       x="229.80611"
       height="26.65995"
       width="25.191059"
       id="rect5358"
       style="fill:#1a181d;fill-opacity:1;fill-rule:nonzero;stroke:none" />
    <path
       style="fill:#1a181d;fill-opacity:1;fill-rule:nonzero;stroke:none"
       d="m 240.125,177.6875 0,28.46875 c 0.87541,0.0235 1.74397,0.0312 2.625,0.0312 26.7098,0 50.89426,-10.89638 68.46875,-28.5 l -71.09375,0 z"
       transform="translate(10.894098,1722.8989)"
       id="rect5360"
       inkscape:connector-curvature="0" />
    <path
       style="fill:none;stroke:#de2c68;stroke-width:3.61973357;stroke-miterlimit:4;stroke-opacity:1;stroke-dasharray:none"
       d="M 149.59375,79.75 C 146.93997,88.691778 145.5,98.185991 145.5,108 c 0,29.24592 12.69156,55.47997 32.78125,73.46875 6.96976,-10.974 11.03125,-24.0467 11.03125,-38.09375 0,-28.15205 -16.25685,-52.436819 -39.71875,-63.625 z"
       transform="translate(10.894098,1722.8989)"
       id="circle5364"
       inkscape:connector-curvature="0" />
    <circle
       d="M 96,44 C 96,56.150264 86.150264,66 74,66 61.849736,66 52,56.150264 52,44 52,31.849736 61.849736,22 74,22 c 12.150264,0 22,9.849736 22,22 z"
       style="fill:none;stroke:#de2c68;stroke-width:1.06239557;stroke-miterlimit:4;stroke-opacity:1;stroke-dasharray:none"
       sodipodi:ry="22"
       sodipodi:rx="22"
       sodipodi:cy="44"
       sodipodi:cx="74"
       cx="74"
       cy="44"
       r="22"
       transform="matrix(3.3783778,0,0,3.4361533,3.9611669,1679.6941)"
       stroke-miterlimit="4"
       id="circle5366" />
    <circle
       inkscape:export-ydpi="210.34973"
       inkscape:export-xdpi="210.34973"
       inkscape:export-filename="/home/seb/work/freifunk-bs-logo/freifunk-bs-avatar.png"
       d="M 103,44 C 103,60.016258 90.016258,73 74,73 57.983742,73 45,60.016258 45,44 45,27.983742 57.983742,15 74,15 c 16.016258,0 29,12.983742 29,29 z"
       style="fill:none;stroke:#de2c68;stroke-width:5.81192684;stroke-miterlimit:4;stroke-opacity:1;stroke-dasharray:none"
       sodipodi:ry="29"
       sodipodi:rx="29"
       sodipodi:cy="44"
       sodipodi:cx="74"
       cx="74"
       cy="44"
       r="29"
       transform="matrix(3.3531293,0,0,3.3859953,5.5124751,1681.9007)"
       stroke-miterlimit="4"
       id="circle5368" />
    <polygon
       id="polygon5372"
       transform="matrix(2.8329663,0,0,2.9319475,77.449053,1747.9625)"
       points="81,59 75,53 88,53 88,47 75,47 81,41 73,41 64,50 73,59 "
       style="fill:#ffcc33;fill-opacity:1" />
  </g>
</svg>
