<?xml version="1.0" encoding="UTF-8" standalone="no"?>
<!-- Created with Inkscape (http://www.inkscape.org/) -->

<svg
   xmlns:dc="http://purl.org/dc/elements/1.1/"
   xmlns:cc="http://creativecommons.org/ns#"
   xmlns:rdf="http://www.w3.org/1999/02/22-rdf-syntax-ns#"
   xmlns:svg="http://www.w3.org/2000/svg"
   xmlns="http://www.w3.org/2000/svg"
   xmlns:sodipodi="http://sodipodi.sourceforge.net/DTD/sodipodi-0.dtd"
   xmlns:inkscape="http://www.inkscape.org/namespaces/inkscape"
   height="200"
   width="200"
   version="1.0"
   viewBox="0 0 159.994 160.00001"
   id="svg2"
   inkscape:version="0.48.5 r10040"
   sodipodi:docname="CoderDojoBS_logo.svg">
  <metadata
     id="metadata10">
    <rdf:RDF>
      <cc:Work
         rdf:about="">
        <dc:format>image/svg+xml</dc:format>
        <dc:type
           rdf:resource="http://purl.org/dc/dcmitype/StillImage" />
      </cc:Work>
    </rdf:RDF>
  </metadata>
  <defs
     id="defs8" />
  <sodipodi:namedview
     pagecolor="#ffffff"
     bordercolor="#666666"
     borderopacity="1"
     objecttolerance="1"
     gridtolerance="1"
     guidetolerance="1"
     inkscape:pageopacity="0"
     inkscape:pageshadow="2"
     inkscape:window-width="1440"
     inkscape:window-height="852"
     id="namedview6"
     showgrid="false"
     inkscape:zoom="2"
     inkscape:cx="66.356698"
     inkscape:cy="88.611127"
     inkscape:window-x="0"
     inkscape:window-y="0"
     inkscape:window-maximized="1"
     inkscape:current-layer="svg2" />
  <g
     id="g4018"
     style="fill:#000000"
     transform="translate(-0.22185,0.064165)">
    <path
       d="m 82.910273,76.887818 0,12.28 1.75,0 0,-3.7 c -8e-6,-0.2403 0.1054,-0.4483 0.275,-0.625 0.1767,-0.1767 0.4026,-0.25 0.65,-0.25 0.2474,8e-6 0.4304,0.07328 0.6,0.25 0.1767,0.1696 0.275,0.3776 0.275,0.625 l 0,4.6 c -8e-6,0.2474 -0.0983,0.4483 -0.275,0.625 -0.1696,0.1696 -0.3526,0.275 -0.6,0.275 l -7.2,0 c -0.2474,0 -0.4483,-0.09829 -0.625,-0.275 -0.1696,-0.1838 -0.25,-0.4026 -0.25,-0.65 -2e-6,-0.2403 0.08036,-0.4304 0.25,-0.6 0.1767,-0.1696 0.3776,-0.275 0.625,-0.275 l 2.725,0 0,-10.5 -2.675,0 c -0.2474,1.3e-5 -0.4483,-0.08035 -0.625,-0.25 -0.1696,-0.1767 -0.275,-0.3776 -0.275,-0.625 -2e-6,-0.2474 0.1054,-0.4553 0.275,-0.625 0.1767,-0.1767 0.3776,-0.275 0.625,-0.2775 z m 1.777797,-26.818227 -5.428,0 0,10.51 5.428,0 z m -7.2106,-0.08639 c -2e-6,-0.4665 0.1696,-0.8694 0.5089,-1.209 0.3393,-0.3393 0.7422,-0.5089 1.209,-0.5089 l 5.556,0 c 0.4594,1.4e-5 0.8552,0.1697 1.187,0.5089 0.3393,0.3393 0.5089,0.7422 0.5089,1.209 l 0,10.66 c -1.1e-5,0.4736 -0.1696,0.88 -0.5089,1.219 -0.3322,0.3322 -0.7351,0.4983 -1.209,0.4983 l -5.534,0 c -0.4806,0 -0.8871,-0.1661 -1.219,-0.4983 -0.3322,-0.3393 -0.4983,-0.7457 -0.4986,-1.219 z m 18.900941,5.3297 c 0,7.903859 -6.462282,14.325599 -14.404588,14.307459 -7.942311,-0.01814 -14.404588,6.403597 -14.404588,14.307458 0,7.903859 6.462277,14.3256 14.404587,14.321234 C 66.142893,98.244685 53.33368,85.435477 53.33368,69.615993 c 0,-15.819478 12.809213,-28.628691 28.628692,-28.628691 7.953757,0 14.416039,6.421738 14.416039,14.325599 z M 81.962371,39.292483 c -16.727417,0 -30.277704,13.596093 -30.277704,30.32351 0,16.727423 13.550287,30.277704 30.277704,30.277704 16.727417,0 30.323509,-13.550281 30.323509,-30.277704 0,-16.727417 -13.596092,-30.32351 -30.323509,-30.32351 z"
       style="fill:#000000;fill-rule:evenodd"
       id="path3950"
       inkscape:connector-curvature="0" />
    <path
       style="fill:#000000"
       id="path3120"
       d="m 80.3356,24.02639 c -0.8942,-0.4214 -2.138,-5.856 -2.255,-9.953 0.02456,-4.723 1.643,-9.458 2.161,-9.747 0.7751,0.4728 2.534,2.474 1.887,9.916 -0.4826,6.779 -0.9047,9.332 -1.793,9.784 z"
       inkscape:connector-curvature="0" />
    <path
       style="fill:#000000"
       id="path3118"
       d="m 113.6356,8.20639 c 0.293,0.8764 -10.01,9.178 -12.14,11.71 -5.514,6.749 -8.393,16 -9.496,17.13 -1.183,-0.08851 -1.014,-15.03 5.3655,-20.7575 4.6095,-4.2585 15.7005,-9.1295 16.2705,-8.0825 z"
       inkscape:connector-curvature="0" />
    <path
       style="fill:#000000"
       id="path3116"
       d="m 49.0656,23.45139 c -11.32,-10.05 -16.18,-9.99 -15.1,-10.55 0.03516,-1.116 13.94,0.04049 20.88,8.301 5.073,6.982 8.511,16.27 7.4025,16.7595 -0.9425,0.1295 -6.1625,-8.5705 -13.1825,-14.5105 z"
       inkscape:connector-curvature="0" />
    <path
       style="fill:#000000"
       id="path3114"
       d="m 107.2196,19.33209 c 6.072,-4.9 17.47,-7.104 17.93,-6.4 0.2233,0.79 -10.86,7.203 -14.89,11.47 -6.706,6.448 -9.827,14.38 -10.432,14.195 -1.509,-0.07829 1.88,-15.055 7.392,-19.265 z"
       inkscape:connector-curvature="0" />
    <path
       style="fill:#000000"
       id="path3112"
       d="m 83.5256,38.74029 c -1.74,-0.39 -1.05,-14.58 1.86,-19.66 2.86,-7.15 13.56,-13.44 14.22,-12.86 0.58,0.341 -7.65,9.501 -10.08,14.51 -3.46,6.4 -5.83,17.29 -6,18.01 z"
       inkscape:connector-curvature="0" />
    <path
       style="fill:#000000"
       id="path3110"
       d="m 71.8106,22.69319 c -2.65,-5.27 -11.51,-14.43 -11.93,-15.45 0.3021,-0.6663 12.39,5.39 15.76,13.08 4.202,7.428 4.236,18.77 2.6355,18.775 -0.7955,-0.165 -1.9855,-8.995 -6.4655,-16.405 z"
       inkscape:connector-curvature="0" />
    <path
       style="fill:#000000"
       id="path3108"
       d="m 61.7296,23.38759 c -4.88,-6.3 -14.39,-13.48 -14.75,-14.34 0.49,-0.574 13.18,3.335 18.6,9.915 5.666,6.66 6.096,20.08 4.5275,20.4425 -0.8475,-0.6975 0.0325,-4.4675 -8.3775,-16.0175 z"
       inkscape:connector-curvature="0" />
    <path
       style="fill:#000000"
       id="path3106"
       d="m 110.8936,31.03759 c 4.73,-10.87 23.55,-11.56 25.27,-10.86 0.2924,0.3277 -6.528,3.346 -10.81,5.666 -4.279,2.32 -6.064,3.804 -9.037,6.306 1.143,0.584 2.149,1.156 2.785,2.123 6.056,-8.064 24.6,-5.205 24.9,-4.579 0.1543,0.9549 -8.215,2.137 -11.48,4.24 -4.158,1.702 -9.106,4.087 -12.9,6.837 -2.321,2.419 -5.693,6.516 -7.77,8.26 -1.873,-0.389 -6.346,-8.014 -6.0925,-9.7505 -0.158,-3.2815 1.5705,-7.9555 5.1345,-8.2425 z"
       inkscape:connector-curvature="0" />
    <path
       style="fill:#000000"
       id="path3104"
       d="m 48.1296,49.18359 c -3.684,-1.95 -8.288,-9.576 -9.885,-9.846 -14.1,-8.118 -20.88,-7.741 -20.81,-8.639 0.8518,-2.514 10.18,-1.595 12.2,-1.531 1.131,0.403 5.325,-0.1267 11.77,4.132 0.7576,-0.4049 2.372,-1.096 3.008,-1.583 -3.41,-2.631 -6.338,-4.352 -10.85,-7.146 -3.003,-2.115 -10.63,-4.6 -10.41,-5.188 7.765,-0.4779 12.38,0.4859 17.6,2.615 2.601,1.302 5.817,3.505 8.781,8.8 2.553,0.7828 4.402,3.277 4.813,7.827 -0.3399,3.015 -4.705,11.19 -6.232,10.56 z"
       inkscape:connector-curvature="0" />
    <path
       style="fill:#000000"
       id="path3102"
       d="m 130.2596,39.83659 c 12.5,-1.254 20.18,2.211 19.96,4.459 -0.6588,0.3716 -14,0.2656 -18.59,1.418 -12.19,2.385 -15.63,6.396 -17.24,5.6225 -0.301,-1.3245 8.419,-10.2195 15.87,-11.4995 z"
       inkscape:connector-curvature="0" />
    <path
       style="fill:#000000"
       id="path3100"
       d="m 30.0196,45.49659 c -11.48,-3.39 -17.22,-1.73 -17.19,-2.61 -0.84,-0.76 14.56,-6.13 23.31,-1.88 2.87,0.63 13.71,11.08 12.71,11.93 -0.87,0.37 -9.58,-5.58 -18.83,-7.44 z"
       inkscape:connector-curvature="0" />
    <path
       style="fill:#000000"
       id="path3098"
       d="m 131.0796,56.00259 c -7.456,-0.8223 -14.3,1.644 -15.75,1.532 3.981,-4.373 5.758,-5.173 7.677,-6.037 1.169,-0.5292 9.494,-0.926 12.53,-0.5587 5.14,-0.02782 15.5,6.317 15.6815,7.77735 -2.0055,0.76975 -10.3385,-2.60765 -20.1385,-2.71365 z"
       inkscape:connector-curvature="0" />
    <path
       style="fill:#000000"
       id="path3096"
       d="m 9.2196,60.10659 c 1.112,-1.723 8.592,-8.674 19.37,-9.205 5.253,-0.7982 19.73,4.743 19.23,6.107 -0.5639,0.7243 -1.614,0.7636 -5.68,0.3674 -2.73,-1.16 -12.26,-0.64 -13.55,-0.45 -12.67,0.19 -18.68,4.18 -19.37,3.17 z"
       inkscape:connector-curvature="0" />
    <path
       style="fill:#000000"
       id="path3094"
       d="m 116.2196,65.49359 c -0.1939,-1.098 5.643,-4.257 9.995,-4.058 4.128,-0.1439 7.128,-0.3117 12.6,1.802 4.731,3.226 12.47,10.25 11.87,11.42 -0.8252,0.1179 -10.71,-6.129 -20.1625,-7.979 -6.3705,-1.808 -14.1025,-0.2115 -14.3025,-1.185 z"
       inkscape:connector-curvature="0" />
    <path
       style="fill:#000000"
       id="path3092"
       d="m 47.1296,64.44359 c 0.4862,1.023 -9.538,0.5374 -19.76,3.741 -11.33,2.939 -16.18,7.912 -16.73,6.837 3.59,-8.65 14.31,-12.87 22.42,-13.5075 5.324,-0.4335 12.58,0.1508 14.07,2.9295 z"
       inkscape:connector-curvature="0" />
    <path
       style="fill:#000000"
       id="path3090"
       d="m 36.1196,70.79259 c 4.428,-1.148 10.07,-0.3712 10.12,0.471 0.1715,1.27 -7.845,2.078 -16.73,7.36 -13.64,7.291 -11.63,8.842 -17.5,11.81 -0.8964,-0.1862 4.236,-10.2 10.06,-14.3385 4.409,-3.3755 8.805,-4.1155 14.05,-5.3025 z"
       inkscape:connector-curvature="0" />
    <path
       style="fill:#000000"
       id="path3088"
       d="m 118.7396,72.91859 c 0.3181,-1.087 11.35,-2.635 20.52,2.723 4.26,2.859 11.58,12.14 11.17,17.9 -1.795,-0.9853 -3.396,-5.641 -14.76,-13.531 -7.985,-5.305 -17.2,-6.275 -16.93,-7.092 z"
       inkscape:connector-curvature="0" />
    <path
       style="fill:#000000"
       id="path3086"
       d="m 146.1696,105.90959 c -3.44,-3.983 -8.645,-10.94 -13.6,-14.73 -5.434,-4.396 -9.249,-7.786 -10.39,-8.225 -5.914,-2.371 -5.713,-3.248 -5.209,-4.747 0.9967,-0.8447 3.755,-0.04371 8.977,1.654 7.985,2.88 11.29,6.722 15.51,13.96 2.542,3.726 3.777,8.976 4.717,12.08 z"
       inkscape:connector-curvature="0" />
    <path
       style="fill:#000000"
       id="path3084"
       d="m 22.5696,90.50959 c 2.839,-4.135 6.27,-7.364 11.52,-9.536 3.453,-1.341 6.286,-2.665 9.572,-3.254 4.424,0.5469 4.507,1.016 1.682,2.064 -5.599,2.352 -9.983,6.027 -14.6,9.823 -5.67,5.156 -10.19,10.76 -14.31,16.56 1.943,-5.757 3.156,-11.46 6.135,-15.66"
       inkscape:connector-curvature="0" />
    <path
       style="fill:#000000"
       id="path3082"
       d="m 45.9306,85.53759 c 2.315,-0.6954 5.167,-1.852 7.322,-2.428 -3.287,3.555 -7.327,6.02 -10.94,9.141 -3.58,3.495 -6.835,6.983 -9.441,11.19 -3.365,5.047 -4.775,9.94 -8.666,13.86 -0.772,-7.001 1.478,-15.55 6.589,-20.7615 4.668,-3.9885 9.692,-9.6965 15.136,-11.0015 z"
       inkscape:connector-curvature="0" />
    <path
       style="fill:#000000"
       id="path3080"
       d="m 125.6506,98.37759 c -4.796,-5.58 -6.11,-7.118 -12.25,-11.42 -1.058,-0.5882 -3.128,-1.442 -1.747,-2.98 1.317,-1.261 7.439,1.412 11.92,5.035 5.027,3.793 9.148,7.145 11,13.66 0.9981,2.519 4.029,14.53 2.615,14.9575 -0.7802,-0.113 -6.289,-13.9025 -11.538,-19.2525 z"
       inkscape:connector-curvature="0" />
    <path
       style="fill:#000000"
       id="path3078"
       d="m 38.0916,105.12359 c 1.966,-3.763 5.07,-7.036 7.866,-10.19 3.495,-3.364 6.9,-5.893 11.34,-7.189 -2.064,3.263 -4.418,6.269 -6.983,9.197 -3.556,3.741 -5.766,7.947 -8.264,12.45 -3.663,6.34 -7.425,22.49 -7.8585,16.106 -0.6195,-7.741 0.6373,-13.614 3.8995,-20.374 z"
       inkscape:connector-curvature="0" />
    <path
       style="fill:#000000"
       id="path3076"
       d="m 119.6666,107.96859 c -3.413,-6.623 -7.4,-11.23 -13.31,-16.08 -1.692,-1.19 -1.223,-3.974 0.9762,-3.288 8.851,3.086 14.56,9.116 16.9,17.11 1.019,6.872 2.288,16.23 3.0344,23.019 -2.4136,-6.929 -4.0136,-14.271 -7.6006,-20.761 z"
       inkscape:connector-curvature="0" />
    <path
       style="fill:#000000"
       id="path3074"
       d="m 107.4366,108.17259 c -1.547,-2.412 -3.471,-4.522 -5.549,-6.628 -1.203,-1.215 -0.5117,-2.858 0.5138,-3.956 1.65,-0.2648 2.652,1.421 3.854,2.312 2.686,1.856 4.886,4.487 6.731,7.193 2.052,3.417 3.808,7.379 4.204,11.36 0.3315,5.752 0.2506,11.56 -0.0939,17.31 -1.049,-3.3 -1.161,-6.957 -2.05545,-9.863 -1.51545,-6.327 -4.07545,-12.428 -7.60445,-17.728 z"
       inkscape:connector-curvature="0" />
    <path
       style="fill:#000000"
       id="path3072"
       d="m 43.3616,123.96259 c -0.3394,-6.521 4.711,-14.37 6.243,-16.73 1.984,-2.916 3.297,-6.631 6.349,-8.607 1.048,-0.9325 4.042,-2.802 4.702,-0.7751 0.671,1.736 -1.765,3.545 -2.749,5.091 -4.012,5.438 -6.836,11.77 -9.351,18.09 -2.661,8.511 -2.183,10.16 -3.7545,16.57555 -0.2601,-3.86045 -1.0825,-9.55445 -1.4395,-13.64445 z"
       inkscape:connector-curvature="0" />
    <path
       style="fill:#000000"
       id="path3070"
       d="m 55.2698,115.48459 c 4.634,-8.532 5.745,-11.95 10.88,-12.51 0.7729,1.005 -1.768,5.817 -4.68,11.76 -1.535,3.869 -2.401,7.646 -3.559,11.84 -0.7606,2.866 -0.9137,14.18 -2.3696,14.31 -3.7606,-7.869 -4.8636,-17.56 -0.2714,-25.4 z"
       inkscape:connector-curvature="0" />
    <path
       style="fill:#000000"
       id="path3068"
       d="m 100.2626,114.21259 c -1.755,-4.034 -4.336,-6.979 -4.242,-8.135 0.5313,-0.3645 6.172,1.555 8.095,5.103 1.653,3.595 4.269,6.766 4.611,10.92 0.494,4.319 0.4886,16.69 -2.8765,20.501 -0.8426,-9.729 -1.1495,-19.189 -5.5875,-28.389 z"
       inkscape:connector-curvature="0" />
    <path
       style="fill:#000000"
       id="path3066"
       d="m 94.7534,139.02059 c 0.07604,-5.848 -2.025,-14.44 -3.68,-18.49 -1.087,-2.529 -4.507,-7.314 -4.29,-8.299 1.245,-1.194 11.49,8.1 12.24,15.39 1.124,6.75 -0.736509,14.02377 -3.494225,19.17682 -0.813173,-2.10364 -0.666275,-5.02382 -0.775775,-7.77782 z"
       inkscape:connector-curvature="0"
       sodipodi:nodetypes="cccccc" />
    <path
       style="fill:#000000"
       id="path3064"
       d="m 63.3556,122.09699 c 1.836,-3.337 2.142,-7.551 4.573,-10.48 3.362,-3.63 8.982,-1.463 5.138,3.802 -2.929,5.55 -5.551,11.47 -6.166,17.78 -0.7555,5.255 -0.3269,10.34 -1.42,13.609 -3.79,-7.606 -6.018,-17.781 -2.125,-24.711 z"
       inkscape:connector-curvature="0" />
    <path
       style="fill:#000000"
       id="path3062"
       d="m 72.8706,126.77899 c 2.076,-11.85 5.382,-12.38 7.416,-12.59 -0.6399,4.115 -1.628,8.566 -1.654,12.99 -0.5484,4.646 -0.2429,9.211 0.2007,13.39 0.5777,5.299 2.151,11.23 0.9171,14.74 -8.8628,-14.72 -8.8548,-19.07 -6.8798,-28.53 z"
       inkscape:connector-curvature="0" />
    <path
       style="fill:#000000"
       id="path4"
       d="m 84.8816,130.42029 c -1.157,-12.29 -3.326,-11.45 -0.5652,-16.24 4.065,6.395 7.462,16.86 5.507,24.68 -1.412,7.236 -2.165,12.82 -6.5644,16.685 -0.6864,-8.952 2.1456,-14.895 1.6226,-25.125 z"
       inkscape:connector-curvature="0" />
  </g>
</svg>
