<?xml version="1.0" encoding="UTF-8" standalone="no"?>
<!-- Created with Inkscape (http://www.inkscape.org/) -->

<svg
   xmlns:dc="http://purl.org/dc/elements/1.1/"
   xmlns:cc="http://creativecommons.org/ns#"
   xmlns:rdf="http://www.w3.org/1999/02/22-rdf-syntax-ns#"
   xmlns:svg="http://www.w3.org/2000/svg"
   xmlns="http://www.w3.org/2000/svg"
   xmlns:sodipodi="http://sodipodi.sourceforge.net/DTD/sodipodi-0.dtd"
   xmlns:inkscape="http://www.inkscape.org/namespaces/inkscape"
   height="200"
   width="200"
   version="1.0"
   viewBox="0 0 159.994 160.00001"
   id="svg2"
   inkscape:version="0.48.2 r9819"
   sodipodi:docname="CoderDojoBS_logo.svg">
  <metadata
     id="metadata10">
    <rdf:RDF>
      <cc:Work
         rdf:about="">
        <dc:format>image/svg+xml</dc:format>
        <dc:type
           rdf:resource="http://purl.org/dc/dcmitype/StillImage" />
      </cc:Work>
    </rdf:RDF>
  </metadata>
  <defs
     id="defs8" />
  <sodipodi:namedview
     pagecolor="#ffffff"
     bordercolor="#666666"
     borderopacity="1"
     objecttolerance="10"
     gridtolerance="10"
     guidetolerance="10"
     inkscape:pageopacity="0"
     inkscape:pageshadow="2"
     inkscape:window-width="1440"
     inkscape:window-height="852"
     id="namedview6"
     showgrid="false"
     inkscape:zoom="3.3592576"
     inkscape:cx="100.27825"
     inkscape:cy="100.07708"
     inkscape:window-x="0"
     inkscape:window-y="0"
     inkscape:window-maximized="1"
     inkscape:current-layer="svg2" />
  <path
     sodipodi:type="arc"
     style="fill:#ffffff;fill-opacity:1;fill-rule:nonzero;stroke:#ffffff;stroke-width:5.6633358;stroke-linecap:round;stroke-linejoin:round;stroke-miterlimit:4;stroke-opacity:1;stroke-dasharray:none"
     id="path2987"
     sodipodi:cx="-42.271244"
     sodipodi:cy="80.628387"
     sodipodi:rx="16.07498"
     sodipodi:ry="20.242569"
     d="m -26.196264,80.628387 a 16.07498,20.242569 0 1 1 -32.14996,0 16.07498,20.242569 0 1 1 32.14996,0 z"
     transform="matrix(1.5777778,0,0,1.264706,148.42839,-32.586455)" />
  <path
     d="m76.69,58.09,0-10.66c-0.000002-0.4665,0.1696-0.8694,0.5089-1.209,0.3393-0.3393,0.7422-0.5089,1.209-0.5089h5.556c0.4594,0.000014,0.8552,0.1697,1.187,0.5089,0.3393,0.3393,0.5089,0.7422,0.5089,1.209v10.66c-0.000011,0.4736-0.1696,0.88-0.5089,1.219-0.3322,0.3322-0.7351,0.4983-1.209,0.4983h-5.534c-0.4806,0-0.8871-0.1661-1.219-0.4983-0.3322-0.3393-0.4983-0.7457-0.4983-1.219m7.21-0.06361,0-10.51-5.428,0,0,10.51,5.428,0m-2.36-18.73c-16.51,0.24-29.88,13.73-29.88,30.3,0,16.46,13.17,29.85,29.53,30.28,0.4074,0.0376,0.8382,0.02536,1.225,0.02496,0.004-0.000056,0.02096,0.000064,0.02496,0,16.51-0.2464,29.85-13.73,29.85-30.3,0-16.45-13.15-29.85-29.5-30.28-0.4398-0.0335-0.8434-0.02238-1.25-0.025zm0.45,1.65c0.3762,0,0.7766,0.0196,1.175,0.05,0.2978-0.00053,0.5574,0.06442,0.825,0.1,6.731,0.9766,11.93,6.748,11.93,13.75,0,7.686-6.239,13.93-13.93,13.93-8.586,0-15.58,6.989-15.58,15.58,0,4.976,2.353,9.402,6,12.25-11.1-3.95-19.07-14.55-19.07-27.01,0-15.68,12.6-28.4,28.23-28.63,0.1364-0.0039,0.2868-0.025,0.425-0.025zm-3.225,37.08,4.475,0,0,12.28,1.75,0,0-3.7c-0.000008-0.2403,0.1054-0.4483,0.275-0.625,0.1767-0.1767,0.4026-0.25,0.65-0.25,0.2474,0.000008,0.4304,0.07328,0.6,0.25,0.1767,0.1696,0.275,0.3776,0.275,0.625v4.6c-0.000008,0.2474-0.0983,0.4483-0.275,0.625-0.1696,0.1696-0.3526,0.275-0.6,0.275h-7.2c-0.2474,0-0.4483-0.09829-0.625-0.275-0.1696-0.1838-0.25-0.4026-0.25-0.65-0.000002-0.2403,0.08036-0.4304,0.25-0.6,0.1767-0.1696,0.3776-0.275,0.625-0.275h2.725v-10.5h-2.675c-0.2474,0.000013-0.4483-0.08035-0.625-0.25-0.1696-0.1767-0.275-0.3776-0.275-0.625-0.000002-0.2474,0.1054-0.4553,0.275-0.625,0.1767-0.1767,0.3776-0.275,0.625-0.275zm1.57-54c-0.8942-0.4214-2.138-5.856-2.255-9.953,0.02456-4.723,1.643-9.458,2.161-9.747,0.7751,0.4728,2.534,2.474,1.887,9.916-0.4826,6.779-0.9047,9.332-1.793,9.784zm17.03-7.735c4.609-4.261,15.7-9.132,16.27-8.085,0.293,0.8764-10.01,9.178-12.14,11.71-5.514,6.749-8.393,16-9.496,17.13-1.183-0.08851-1.014-15.03,5.365-20.76zm-35.12,21.67c-0.94,0.13-6.16-8.57-13.18-14.51-11.32-10.05-16.18-9.99-15.1-10.55,0.03516-1.116,13.94,0.04049,20.88,8.301,5.073,6.982,8.511,16.27,7.405,16.76zm37.58,0.6407c-1.507-0.08329,1.882-15.06,7.394-19.27,6.072-4.9,17.47-7.104,17.93-6.4,0.2233,0.79-10.86,7.203-14.89,11.47-6.706,6.448-9.827,14.38-10.43,14.19zm-16.3,0.1382c-1.74-0.39-1.05-14.58,1.86-19.66,2.86-7.15,13.56-13.44,14.22-12.86,0.58,0.341-7.65,9.501-10.08,14.51-3.46,6.4-5.83,17.29-6,18.01zm-5.245,0.3529c-0.8-0.16-1.99-8.99-6.47-16.4-2.65-5.27-11.51-14.43-11.93-15.45,0.3021-0.6663,12.39,5.39,15.76,13.08,4.202,7.428,4.236,18.77,2.631,18.78zm-8.171,0.3044c-0.85-0.69,0.03-4.46-8.38-16.01-4.88-6.3-14.39-13.48-14.75-14.34,0.49-0.574,13.18,3.335,18.6,9.915,5.666,6.66,6.096,20.08,4.525,20.45zm35.65-0.119c-0.1585-3.28,1.57-7.954,5.134-8.241,4.73-10.87,23.55-11.56,25.27-10.86,0.2924,0.3277-6.528,3.346-10.81,5.666-4.279,2.32-6.064,3.804-9.037,6.306,1.143,0.584,2.149,1.156,2.785,2.123,6.056-8.064,24.6-5.205,24.9-4.579,0.1543,0.9549-8.215,2.137-11.48,4.24-4.158,1.702-9.106,4.087-12.9,6.837-2.321,2.419-5.693,6.516-7.77,8.26-1.873-0.389-6.346-8.014-6.093-9.749zm-57.63,9.905c-3.684-1.95-8.288-9.576-9.885-9.846-14.1-8.118-20.88-7.741-20.81-8.639,0.8518-2.514,10.18-1.595,12.2-1.531,1.131,0.403,5.325-0.1267,11.77,4.132,0.7576-0.4049,2.372-1.096,3.008-1.583-3.41-2.631-6.338-4.352-10.85-7.146-3.003-2.115-10.63-4.6-10.41-5.188,7.765-0.4779,12.38,0.4859,17.6,2.615,2.601,1.302,5.817,3.505,8.781,8.8,2.553,0.7828,4.402,3.277,4.813,7.827-0.3399,3.015-4.705,11.19-6.232,10.56zm66.26,2.153c-0.301-1.325,8.419-10.22,15.87-11.5,12.5-1.254,20.18,2.211,19.96,4.459-0.6588,0.3716-14,0.2656-18.59,1.418-12.19,2.385-15.63,6.396-17.24,5.622zm-84.37-5.84c-11.48-3.39-17.22-1.73-17.19-2.61-0.84-0.76,14.56-6.13,23.31-1.88,2.87,0.63,13.71,11.08,12.71,11.93-0.87,0.37-9.58-5.58-18.83-7.44zm121.2,13.22c-2.007,0.7694-10.34-2.608-20.14-2.714-7.456-0.8223-14.3,1.644-15.75,1.532,3.981-4.373,5.758-5.173,7.677-6.037,1.169-0.5292,9.494-0.926,12.53-0.5587,5.14-0.02782,15.5,6.317,15.68,7.777zm-142,1.39c1.112-1.723,8.592-8.674,19.37-9.205,5.253-0.7982,19.73,4.743,19.23,6.107-0.5639,0.7243-1.614,0.7636-5.68,0.3674-2.73-1.16-12.26-0.64-13.55-0.45-12.67,0.19-18.68,4.18-19.37,3.17zm121.3,6.57c-6.368-1.806-14.1-0.2095-14.3-1.183-0.1939-1.098,5.643-4.257,9.995-4.058,4.128-0.1439,7.128-0.3117,12.6,1.802,4.731,3.226,12.47,10.25,11.87,11.42-0.8252,0.1179-10.71-6.129-20.16-7.977zm-97.46-5.16c5.324-0.436,12.58,0.1483,14.07,2.927,0.4862,1.023-9.538,0.5374-19.76,3.741-11.33,2.939-16.18,7.912-16.73,6.837,3.59-8.65,14.31-12.87,22.42-13.51zm-10.99,14.58c4.409-3.377,8.805-4.117,14.05-5.304,4.428-1.148,10.07-0.3712,10.12,0.471,0.1715,1.27-7.845,2.078-16.73,7.36-13.64,7.291-11.63,8.842-17.5,11.81-0.8964-0.1862,4.236-10.2,10.06-14.34zm113.6,3.913c-7.985-5.304-17.2-6.274-16.93-7.091,0.3181-1.087,11.35-2.635,20.52,2.723,4.26,2.859,11.58,12.14,11.17,17.9-1.795-0.9853-3.396-5.641-14.76-13.53zm10.5,25.9c-3.44-3.983-8.645-10.94-13.6-14.73-5.434-4.396-9.249-7.786-10.39-8.225-5.914-2.371-5.713-3.248-5.209-4.747,0.9967-0.8447,3.755-0.04371,8.977,1.654,7.985,2.88,11.29,6.722,15.51,13.96,2.542,3.726,3.777,8.976,4.717,12.08zm-123.6-15.4c2.839-4.135,6.27-7.364,11.52-9.536,3.453-1.341,6.286-2.665,9.572-3.254,4.424,0.5469,4.507,1.016,1.682,2.064-5.599,2.352-9.983,6.027-14.6,9.823-5.67,5.156-10.19,10.76-14.31,16.56,1.943-5.757,3.156-11.46,6.135-15.66zm8.221,6.028c4.672-3.987,9.696-9.695,15.14-11,2.315-0.6954,5.167-1.852,7.322-2.428-3.287,3.555-7.327,6.02-10.94,9.141-3.58,3.495-6.835,6.983-9.441,11.19-3.365,5.047-4.775,9.94-8.666,13.86-0.772-7.001,1.478-15.55,6.593-20.76zm106.4,21.09c-0.7822-0.1105-6.291-13.9-11.54-19.25-4.796-5.58-6.11-7.118-12.25-11.42-1.058-0.5882-3.128-1.442-1.747-2.98,1.317-1.261,7.439,1.412,11.92,5.035,5.027,3.793,9.148,7.145,11,13.66,0.9981,2.519,4.029,14.53,2.613,14.96zm-103,7.866c-0.618-7.737,0.6388-13.61,3.901-20.37,1.966-3.763,5.07-7.036,7.866-10.19,3.495-3.364,6.9-5.893,11.34-7.189-2.064,3.263-4.418,6.269-6.983,9.197-3.556,3.741-5.766,7.947-8.264,12.45-3.663,6.34-7.425,22.49-7.857,16.11zm93.08,3.235c-2.417-6.928-4.017-14.27-7.604-20.76-3.413-6.623-7.4-11.23-13.31-16.08-1.692-1.19-1.223-3.974,0.9762-3.288,8.851,3.086,14.56,9.116,16.9,17.11,1.019,6.872,2.288,16.23,3.031,23.02zm-12.23-2.826c-1.515-6.329-4.075-12.43-7.604-17.73-1.547-2.412-3.471-4.522-5.549-6.628-1.203-1.215-0.5117-2.858,0.5138-3.956,1.65-0.2648,2.652,1.421,3.854,2.312,2.686,1.856,4.886,4.487,6.731,7.193,2.052,3.417,3.808,7.379,4.204,11.36,0.3315,5.752,0.2506,11.56-0.0939,17.31-1.049-3.3-1.161-6.957-2.055-9.865zm-70.24,11.7c-0.2596-3.856-1.082-9.55-1.439-13.64-0.3394-6.521,4.711-14.37,6.243-16.73,1.984-2.916,3.297-6.631,6.349-8.607,1.048-0.9325,4.042-2.802,4.702-0.7751,0.671,1.736-1.765,3.545-2.749,5.091-4.012,5.438-6.836,11.77-9.351,18.09-2.661,8.511-2.183,10.16-3.754,16.58zm10.74,3.282c-3.76-7.869-4.863-17.56-0.2708-25.4,4.634-8.532,5.745-11.95,10.88-12.51,0.7729,1.005-1.768,5.817-4.68,11.76-1.535,3.869-2.401,7.646-3.559,11.84-0.7606,2.866-0.9137,14.18-2.369,14.31zm50.31,1.718c-0.8431-9.73-1.15-19.19-5.588-28.39-1.755-4.034-4.336-6.979-4.242-8.135,0.5313-0.3645,6.172,1.555,8.095,5.103,1.653,3.595,4.269,6.766,4.611,10.92,0.494,4.319,0.4886,16.69-2.877,20.5zm-10.32,4.236c-0.816-2.088-0.6677-5.064-0.7772-7.818,0.07604-5.848-2.025-14.44-3.68-18.49-1.087-2.529-4.507-7.314-4.29-8.299,1.245-1.194,11.49,8.1,12.24,15.39,1.124,6.75-0.7786,14.08-3.494,19.21zm-30.05-0.0316c-3.79-7.605-6.018-17.78-2.125-24.71,1.836-3.337,2.142-7.551,4.573-10.48,3.362-3.63,8.982-1.463,5.138,3.802-2.929,5.55-5.551,11.47-6.166,17.78-0.7555,5.255-0.3269,10.34-1.42,13.61zm14.27,8.502c-8.863-14.72-8.855-19.07-6.88-28.53,2.076-11.85,5.382-12.38,7.416-12.59-0.6399,4.115-1.628,8.566-1.654,12.99-0.5484,4.646-0.2429,9.211,0.2007,13.39,0.5777,5.299,2.151,11.23,0.9169,14.74zm3.509,0.2413c-0.687-8.957,2.145-14.9,1.622-25.13-1.157-12.29-3.326-11.45-0.5652-16.24,4.065,6.395,7.462,16.86,5.507,24.68-1.412,7.236-2.165,12.82-6.565,16.68z"
     id="path4" />
</svg>
