<?xml version="1.0" encoding="UTF-8" standalone="no"?>
<!-- Created with Inkscape (http://www.inkscape.org/) -->

<svg
   xmlns:dc="http://purl.org/dc/elements/1.1/"
   xmlns:cc="http://creativecommons.org/ns#"
   xmlns:rdf="http://www.w3.org/1999/02/22-rdf-syntax-ns#"
   xmlns:svg="http://www.w3.org/2000/svg"
   xmlns="http://www.w3.org/2000/svg"
   version="1.1"
   width="100"
   height="80"
   id="svg2">
  <metadata
     id="metadata3125">
    <rdf:RDF>
      <cc:Work
         rdf:about="">
        <dc:format>image/svg+xml</dc:format>
        <dc:type
           rdf:resource="http://purl.org/dc/dcmitype/StillImage" />
        <dc:title></dc:title>
      </cc:Work>
    </rdf:RDF>
  </metadata>
  <defs
     id="defs3123" />
  <g
     id="all">
    <rect
       width="100"
       height="100"
       x="0"
       y="-20"
       id="backgroundall"
       style="fill:#ffffff;fill-opacity:1;stroke:none" />
    <g
       id="background">
      <path
         d="M 0,0 100,0 100,80 0,80 z"
         id="back2"
         style="fill:#ffffff;fill-opacity:1;stroke:none" />
      <path
         d="M 29.46875,2.5 C 22.870919,2.56248 16.295583,4.283645 10.5,7.4375 9.4606699,13.166347 10.21524,19.185622 12.59375,24.5 c 1.952716,4.362982 4.953813,8.193251 8.28125,11.625 1.293825,1.334399 2.617243,2.598707 3.96875,3.875 l 10.3125,0 c -0.998918,-0.943322 -2.014042,-1.887137 -3,-2.84375 -1.977929,-1.919069 -3.883451,-3.909915 -5.75,-5.9375 -2.690342,-2.922455 -5.313921,-5.99971 -6.9375,-9.625 -1.256845,-2.806436 -1.896045,-5.894865 -1.8125,-8.96875 3.960094,-1.821505 8.328843,-2.766085 12.6875,-2.71875 4.314809,0.04686 8.611509,1.066884 12.5,2.9375 0.307797,3.345215 0.0012,6.743225 -0.9375,9.96875 -0.632577,2.173548 -1.531009,4.250491 -2.53125,6.28125 -0.896524,1.820231 -1.887439,3.60754 -2.9375,5.34375 2.740848,-0.911685 5.264163,-2.49615 7.25,-4.59375 1.421394,-1.50138 2.566282,-3.249122 3.5,-5.09375 2.152806,-4.252982 3.15167,-9.102758 2.65625,-13.84375 C 49.721398,9.7355683 49.518761,8.5756839 49.21875,7.4375 43.198674,4.161482 36.322179,2.435104 29.46875,2.5 z m 5.6875,37.5 c 1.351512,1.276291 2.674902,2.540599 3.96875,3.875 3.327437,3.431741 6.328572,7.262017 8.28125,11.625 2.378509,5.314377 3.133038,11.333649 2.09375,17.0625 -5.795583,3.153865 -12.370877,4.87503 -18.96875,4.9375 -6.853387,0.06489 -13.729964,-1.661485 -19.75,-4.9375 -0.300012,-1.138184 -0.502648,-2.298064 -0.625,-3.46875 -0.4954611,-4.740992 0.503405,-9.590776 2.65625,-13.84375 0.93376,-1.844628 2.078607,-3.592369 3.5,-5.09375 1.985837,-2.097579 4.509153,-3.682045 7.25,-4.59375 -1.050021,1.736213 -2.040975,3.523523 -2.9375,5.34375 -1.00024,2.030763 -1.898673,4.107699 -2.53125,6.28125 -0.93868,3.225525 -1.245297,6.623535 -0.9375,9.96875 3.88849,1.870607 8.185232,2.89064 12.5,2.9375 4.358657,0.04734 8.727405,-0.89724 12.6875,-2.71875 0.08355,-3.073884 -0.555654,-6.162313 -1.8125,-8.96875 -1.623579,-3.625293 -4.247159,-6.702544 -6.9375,-9.625 -1.86655,-2.027579 -3.77207,-4.018428 -5.75,-5.9375 -0.985958,-0.956612 -2.001085,-1.900427 -3,-2.84375 L 0,40 l 0,40 100,0 0,-40 -20,0 0,20 -20,0 0,-20 -24.84375,0 z M 60,40 80,40 80,20 60,20 60,40 z M 23.21875,19.25 c 0.766831,2.320355 1.964281,4.505286 3.5,6.40625 1.32139,1.635654 2.898821,3.064236 4.65625,4.21875 1.740809,-0.870409 3.280551,-2.108113 4.5,-3.625 1.601191,-1.99177 2.61943,-4.460564 2.90625,-7 -2.42837,1.042755 -5.075971,1.58395 -7.71875,1.59375 -2.691269,0.0099 -5.370803,-0.531861 -7.84375,-1.59375 z M 29.6875,56.875 38.375,64.5 C 35.40865,65.629438 32.20265,66.130259 29.03125,66 26.45358,65.894127 23.905174,65.37067 21.5,64.4375 l 8.1875,-7.5625 z"
         id="main"
         style="fill:#000000;fill-opacity:1;stroke:none" />
    </g>
    <g
       id="text"
       style="font-size:13px;font-style:normal;font-variant:normal;font-weight:normal;font-stretch:normal;line-height:125%;letter-spacing:0px;word-spacing:0px;fill:#000000;fill-opacity:1;stroke:none;font-family:Yanone Kaffeesatz ZeroHack;-inkscape-font-specification:Yanone Kaffeesatz ZeroHack">
      <path
         d="m 4.9890625,-17.386442 c -2.2399978,0 -3.44,1.200001 -3.44,2.88 0,0.939999 0.3400009,1.760001 1.24,2.88 l 2.02,2.3399996 c 0.8799991,1.019999 1.16,1.6800009 1.16,2.6 0,1.2199988 -0.5400014,2.04 -1.96,2.04 -0.959999,0 -1.6400004,-0.3200004 -2.06,-0.7 -0.2799997,0.3599997 -0.42,0.8400003 -0.42,1.16 0,0.5599995 0.8000018,1.2 2.62,1.2 2.7199973,0 3.58,-1.740002 3.58,-3.76 0,-1.2399987 -0.300001,-2.1400012 -1.34,-3.3799996 l -2.16,-2.46 c -0.5999994,-0.72 -0.92,-1.240001 -0.92,-1.98 0,-0.86 0.7600012,-1.38 1.94,-1.38 0.9199991,0 1.6800003,0.28 1.96,0.5 0.2799997,-0.3 0.4,-0.660001 0.4,-0.94 0,-0.56 -0.7200019,-1 -2.62,-1"
         id="path3006"
         style="font-size:20px" />
      <path
         d="m 9.8975,-5.9664424 c 0,1.7999982 0.220002,2.98 1.92,2.98 0.779999,0 1.72,-0.1600007 1.72,-0.9 0,-0.3199997 -0.06,-0.5800002 -0.12,-0.8 -0.4,0.1999998 -0.7,0.3 -1.16,0.3 -0.719999,0 -0.72,-0.7200008 -0.72,-1.58 l 0,-5.8199996 1.72,0 c 0.32,0 0.32,-0.140002 0.32,-1.4 l -2.04,0 0,-3.6 c -1.339999,0 -1.64,0 -1.64,0.56 l 0,3.04 -1,0 c -0.3399997,0 -0.36,0.160001 -0.36,1.4 l 1.36,0 0,5.8199996"
         id="path3008"
         style="font-size:20px" />
      <path
         d="m 14.897813,-3.1864424 c 1.619998,0 1.64,-3e-7 1.64,-0.32 l 0.02,-7.8599996 c 0.379999,-0.32 0.88,-0.46 1.32,-0.46 0.339999,0 0.66,0.08 0.96,0.24 0.139999,-0.34 0.18,-0.740001 0.18,-0.96 0,-0.54 -0.380002,-0.84 -1.4,-0.84 -0.98,0 -1.940001,0.36 -2.72,0.9 l 0,9.2999996"
         id="path3010"
         style="font-size:20px" />
      <path
         d="m 19.87125,-12.286442 c 0,0.239999 0.04,0.6 0.22,0.92 0.579999,-0.24 1.640001,-0.44 2.64,-0.44 0.799999,0 1.24,0.240001 1.24,1.18 l 0,1.5799996 c -0.4,-0.1999998 -1.02,-0.26 -1.46,-0.26 -1.339999,0 -2.66,0.5000028 -2.66,3.28 0,2.7399973 1.400001,3.06 2.86,3.04 1.299999,0 2.240001,-0.3600003 2.78,-0.68 0.1,-1.5199985 0.12,-3.9200023 0.12,-6.22 l 0,-1.0599996 c 0,-1.799999 -0.760002,-2.44 -2.48,-2.44 -1.519998,0 -2.7,0.32 -3.04,0.54 -0.16,0.12 -0.22,0.34 -0.22,0.56 m 4.1,4.3799996 c 0,1.0799989 0,2.5600007 -0.06,3.22 -0.18,0.1799998 -0.62,0.34 -1.06,0.34 -0.779999,0 -1.3,-0.2600014 -1.3,-1.72 0,-1.7399982 0.680001,-2.02 1.48,-2.02 0.28,0 0.68,0.06 0.94,0.18"
         id="path3012"
         style="font-size:20px" />
      <path
         d="m 27.71,-5.9664424 c 0,1.7999982 0.220002,2.98 1.92,2.98 0.779999,0 1.72,-0.1600007 1.72,-0.9 0,-0.3199997 -0.06,-0.5800002 -0.12,-0.8 -0.4,0.1999998 -0.7,0.3 -1.16,0.3 -0.719999,0 -0.72,-0.7200008 -0.72,-1.58 l 0,-5.8199996 1.72,0 c 0.32,0 0.32,-0.140002 0.32,-1.4 l -2.04,0 0,-3.6 c -1.339999,0 -1.64,0 -1.64,0.56 l 0,3.04 -1,0 c -0.34,0 -0.36,0.160001 -0.36,1.4 l 1.36,0 0,5.8199996"
         id="path3014"
         style="font-size:20px" />
      <path
         d="m 38.514063,-13.186442 c -1.599999,0 -1.62,0 -1.62,0.34 l 0,8.0799996 c -0.42,0.2799997 -0.980001,0.36 -1.34,0.36 -1.079999,0 -1.34,-0.4600013 -1.34,-1.76 l 0,-7.0199996 c -1.679999,0 -1.68,0 -1.68,0.34 l 0,6.5399996 c 0,2.2399978 0.620002,3.32 3,3.32 1.079998,0 2.22,-0.3000004 2.98,-0.72 l 0,-9.4799996"
         id="path3016"
         style="font-size:20px" />
      <path
         d="m 44.346563,-3.1864424 c 1.639998,0 1.62,-3e-7 1.62,-0.32 l 0,-8.0599996 c 0.439999,-0.28 0.88,-0.38 1.34,-0.38 0.799999,0 0.98,0.400001 0.98,1.36 l 0,7.3999996 c 1.559998,0 1.62,-3e-7 1.62,-0.32 l 0,-7.0599996 c 0,-1.799999 -0.240002,-2.82 -2.24,-2.82 -0.82,0 -1.780001,0.24 -2.46,0.62 -0.38,-0.4 -0.940001,-0.62 -1.8,-0.62 -1.099999,0 -2.140001,0.26 -3.02,0.66 l 0,9.5399996 c 1.559998,0 1.62,-3e-7 1.62,-0.32 l 0,-8.1199996 c 0.459999,-0.24 0.92,-0.34 1.36,-0.34 0.799999,0 0.96,0.28 0.98,1 l 0,7.7799996"
         id="path3018"
         style="font-size:20px" />
      <path
         d="m 60.801563,-3.1864424 c 0.399999,0.04 0.72,0.04 0.96,0.04 0.639999,0 0.739999,-0.1200002 0.7,-0.34 l -3.58,-13.6999996 c -0.2,-0.04 -0.480001,-0.06 -0.76,-0.06 -0.36,0 -0.580001,0.08 -0.62,0.28 l -3.56,13.7599996 c 0.379999,0.04 0.8,0.06 1.02,0.06 0.639999,0 0.7,-0.1000002 0.76,-0.32 l 0.78,-3.28 3.44,0 0.86,3.56 m -3.28,-7.8799996 c 0.299999,-1.339999 0.58,-2.880001 0.7,-3.84 0.1,0.959999 0.38,2.520001 0.7,3.84 l 0.68,2.8399996 -2.76,0 0.68,-2.8399996"
         id="path3020"
         style="font-size:20px" />
      <path
         d="m 69.25625,-13.186442 c -1.599998,0 -1.62,0 -1.62,0.34 l 0,8.0799996 c -0.42,0.2799997 -0.98,0.36 -1.34,0.36 -1.079999,0 -1.34,-0.4600013 -1.34,-1.76 l 0,-7.0199996 c -1.679998,0 -1.68,0 -1.68,0.34 l 0,6.5399996 c 0,2.2399978 0.620002,3.32 3,3.32 1.079999,0 2.220001,-0.3000004 2.98,-0.72 l 0,-9.4799996"
         id="path3022"
         style="font-size:20px" />
      <path
         d="m 71.10875,-3.1864424 c 1.599998,0 1.62,-3e-7 1.62,-0.32 l 0,-7.8199996 c 0.48,-0.42 1.06,-0.56 1.5,-0.56 0.979999,0 1.14,0.720001 1.14,1.6 l 0,7.0999996 c 1.599998,0 1.68,-3e-7 1.68,-0.32 l 0,-7.2399996 c 0,-1.679999 -0.360002,-2.64 -2.08,-2.64 -0.759999,0 -1.620001,0.24 -2.24,0.78 l 0,-5.28 c -1.339999,0 -1.62,0 -1.62,0.74 l 0,13.9599996"
         id="path3024"
         style="font-size:20px" />
      <path
         d="m 84.685938,-13.186442 c -1.599999,0 -1.62,0 -1.62,0.34 l 0,8.0799996 c -0.42,0.2799997 -0.980001,0.36 -1.34,0.36 -1.079999,0 -1.34,-0.4600013 -1.34,-1.76 l 0,-7.0199996 c -1.679999,0 -1.68,0 -1.68,0.34 l 0,6.5399996 c 0,2.2399978 0.620002,3.32 3,3.32 1.079998,0 2.22,-0.3000004 2.98,-0.72 l 0,-9.4799996"
         id="path3026"
         style="font-size:20px" />
      <path
         d="m 92.498438,-13.186442 c -1.599999,0 -1.62,0 -1.62,0.34 l 0,8.0799996 c -0.42,0.2799997 -0.980001,0.36 -1.34,0.36 -1.079999,0 -1.34,-0.4600013 -1.34,-1.76 l 0,-7.0199996 c -1.679999,0 -1.68,0 -1.68,0.34 l 0,6.5399996 c 0,2.2399978 0.620002,3.32 3,3.32 1.079998,0 2.22,-0.3000004 2.98,-0.72 l 0,-9.4799996"
         id="path3028"
         style="font-size:20px" />
      <path
         d="m 94.350938,-3.1864424 c 1.619998,0 1.64,-3e-7 1.64,-0.32 l 0.02,-7.8599996 c 0.379999,-0.32 0.88,-0.46 1.32,-0.46 0.339999,0 0.66,0.08 0.96,0.24 0.139999,-0.34 0.18,-0.740001 0.18,-0.96 0,-0.54 -0.380002,-0.84 -1.4,-0.84 -0.98,0 -1.940001,0.36 -2.72,0.9 l 0,9.2999996"
         id="path3030"
         style="font-size:20px" />
    </g>
  </g>
</svg>
