<?xml version="1.0" encoding="UTF-8" standalone="no"?>
<!-- Created with Inkscape (http://www.inkscape.org/) -->

<svg
   xmlns:dc="http://purl.org/dc/elements/1.1/"
   xmlns:cc="http://creativecommons.org/ns#"
   xmlns:rdf="http://www.w3.org/1999/02/22-rdf-syntax-ns#"
   xmlns:svg="http://www.w3.org/2000/svg"
   xmlns="http://www.w3.org/2000/svg"
   xmlns:inkscape="http://www.inkscape.org/namespaces/inkscape"
   version="1.1"
   width="155"
   height="155"
   id="svg3269">
  <defs
     id="defs3271">
    <inkscape:path-effect
       effect="spiro"
       id="path-effect3420" />
    <inkscape:path-effect
       effect="spiro"
       id="path-effect3315" />
    <inkscape:path-effect
       effect="spiro"
       id="path-effect3336" />
    <inkscape:path-effect
       effect="spiro"
       id="path-effect4388" />
    <inkscape:path-effect
       effect="spiro"
       id="path-effect3295" />
  </defs>
  <metadata
     id="metadata3274">
    <rdf:RDF>
      <cc:Work
         rdf:about="">
        <dc:format>image/svg+xml</dc:format>
        <dc:type
           rdf:resource="http://purl.org/dc/dcmitype/StillImage" />
        <dc:title></dc:title>
      </cc:Work>
    </rdf:RDF>
  </metadata>
  <g
     transform="translate(0,-897.36218)"
     id="layer1">
    <g
       transform="matrix(0.41277208,0,0,0.41277208,1999.2386,714.04405)"
       id="g4357">
      <path
         d="m -4655.6895,462.92952 c -72.4123,0 -131.3323,58.91997 -131.3323,131.33231 0,72.41239 58.92,131.33236 131.3323,131.33236 72.4124,0 131.3324,-58.91997 131.3324,-131.33236 0,-72.41234 -58.92,-131.33231 -131.3324,-131.33231 z m 0,20.43304 c 61.366,0 110.8993,49.53328 110.8993,110.89927 0,61.36604 -49.5333,110.89932 -110.8993,110.89936 -61.366,0 -110.8993,-49.53332 -110.8993,-110.89936 0,-61.36599 49.5333,-110.89931 110.8993,-110.89927 z"
         id="path4359"
         style="font-size:medium;font-style:normal;font-variant:normal;font-weight:normal;font-stretch:normal;text-indent:0;text-align:start;text-decoration:none;line-height:normal;letter-spacing:normal;word-spacing:normal;text-transform:none;direction:ltr;block-progression:tb;writing-mode:lr-tb;text-anchor:start;baseline-shift:baseline;color:#000000;fill:#000000;fill-opacity:1;stroke:none;stroke-width:48.04657745;marker:none;visibility:visible;display:inline;overflow:visible;enable-background:accumulate;font-family:Sans;-inkscape-font-specification:Sans" />
      <path
         d="m -4663.8371,558.69661 c -3.8069,-4.71231 -6.7547,-10.11651 -8.6556,-15.86845 6.1302,2.63232 12.8036,3.99171 19.475,3.9671 6.5512,-0.0242 13.0946,-1.38224 19.1143,-3.96713 -0.711,6.29502 -3.2438,12.37363 -7.213,17.31104 -3.0229,3.76022 -6.8647,6.85853 -11.18,9.01619 -4.3565,-2.86193 -8.2651,-6.40412 -11.5407,-10.45875 z m 28.8876,96.26242 -21.5238,-18.8316 -20.3125,18.69972 c 5.9622,2.31324 12.3072,3.63633 18.697,3.89878 7.8616,0.3229 15.786,-0.96713 23.1393,-3.7669 z m 5.3985,-15.07685 c 3.1156,6.95689 4.6444,14.61887 4.4373,22.23874 -9.8167,4.51535 -20.641,6.82388 -31.4457,6.70652 -10.6959,-0.11617 -21.3596,-2.60875 -30.9988,-7.24581 -0.763,-8.29247 0.047,-16.72691 2.3739,-24.72268 1.5681,-5.38803 3.811,-10.55787 6.2905,-15.59194 2.2224,-4.51217 4.6396,-8.92842 7.2425,-13.23233 -6.7943,2.26003 -13.0156,6.22086 -17.9383,11.42056 -3.5235,3.72178 -6.3731,8.0477 -8.6878,12.62036 -5.3367,10.54272 -7.8491,22.58165 -6.6209,34.33412 0.3033,2.90202 0.8299,5.78066 1.5736,8.60211 14.9231,8.12093 31.9352,12.36437 48.9241,12.20352 16.3555,-0.15485 32.657,-4.38539 47.0237,-12.20352 2.5763,-14.20128 0.7613,-29.168 -5.1348,-42.34184 -4.8405,-10.81542 -12.2825,-20.28871 -20.5309,-28.79567 -5.5779,-5.75273 -11.5474,-11.10991 -17.2983,-16.68965 -4.9031,-4.75719 -9.6476,-9.67648 -14.2746,-14.70267 -6.6691,-7.24449 -13.1885,-14.85581 -17.2132,-23.84256 -3.1156,-6.95689 -4.6444,-14.61887 -4.4373,-22.23874 9.8167,-4.51534 20.6409,-6.82386 31.4456,-6.70652 10.696,0.11616 21.3597,2.60874 30.9989,7.24582 0.763,8.29247 -0.047,16.72691 -2.3739,24.72268 -1.5681,5.38802 -3.811,10.55787 -6.2905,15.59193 -2.2224,4.51218 -4.6396,8.92843 -7.2426,13.23233 6.7943,-2.25998 13.0157,-6.22081 17.9384,-11.42056 3.5235,-3.72178 6.3731,-8.0477 8.6877,-12.62036 5.3366,-10.54274 7.849,-22.58164 6.6209,-34.33411 -0.3033,-2.90201 -0.8298,-5.78067 -1.5735,-8.60212 -14.9232,-8.12094 -31.9352,-12.36439 -48.9242,-12.20352 -16.3554,0.15487 -32.6569,4.38541 -47.0236,12.20352 -2.5764,14.20127 -0.7614,29.16801 5.1347,42.34185 4.8406,10.81542 12.2826,20.28868 20.531,28.79566 5.5778,5.75272 11.5473,11.10993 17.2982,16.68966 4.9031,4.7572 9.6476,9.67648 14.2746,14.70266 6.6691,7.24449 13.1886,14.8558 17.2133,23.84256 z"
         id="path4361"
         style="fill:#000000;fill-opacity:1;fill-rule:evenodd;stroke:none" />
    </g>
    <g
       transform="matrix(1.1367373,0,0,1.1367373,-11.538979,-127.06006)"
       id="text3526"
       style="font-size:32.43917847px;font-style:normal;font-variant:normal;font-weight:normal;font-stretch:normal;text-align:center;line-height:125%;writing-mode:lr-tb;text-anchor:middle;fill:#000000;fill-opacity:1;fill-rule:evenodd;stroke:none;font-family:Yanone Kaffeesatz;-inkscape-font-specification:Yanone Kaffeesatz">
      <path
         d="m 36.678334,1007.5517 c 1.643577,0 2.789761,0.1622 3.438553,0.4866 0.648773,0.3244 0.973165,0.7677 0.973175,1.33 -1e-5,0.3028 -0.06489,0.638 -0.194635,1.0056 -0.129767,0.346 -0.346028,0.692 -0.648783,1.038 -0.173019,-0.1297 -0.529849,-0.2703 -1.070493,-0.4217 -0.540661,-0.1513 -1.124566,-0.227 -1.751716,-0.227 -0.800172,0 -1.427329,0.1405 -1.881472,0.4217 -0.454153,0.2595 -0.681227,0.6704 -0.681223,1.2327 -4e-6,0.4974 0.0865,0.9623 0.259514,1.3948 0.173004,0.411 0.475769,0.9084 0.908297,1.4922 l 3.114161,3.9901 c 0.389261,0.4974 0.702839,0.9731 0.940736,1.4273 0.259503,0.4325 0.464951,0.865 0.616344,1.2976 0.151373,0.4109 0.24869,0.8326 0.291953,1.2651 0.06487,0.4109 0.09731,0.8434 0.09732,1.2975 -1e-5,0.8218 -0.08652,1.6112 -0.259513,2.3681 -0.173019,0.7569 -0.486598,1.4273 -0.940736,2.0112 -0.432532,0.5839 -1.038062,1.0597 -1.816594,1.4274 -0.756921,0.346 -1.719283,0.519 -2.887087,0.519 -1.470579,0 -2.551884,-0.2163 -3.243918,-0.6488 -0.67041,-0.4541 -1.005615,-0.9624 -1.005614,-1.5246 -1e-6,-0.3677 0.06488,-0.7894 0.194635,-1.2652 0.129756,-0.4757 0.335203,-0.9299 0.616344,-1.3624 0.346016,0.3028 0.789351,0.5623 1.330006,0.7785 0.54065,0.1947 1.102929,0.292 1.686838,0.292 0.908291,0 1.524635,-0.2271 1.849033,-0.6812 0.346011,-0.4542 0.51902,-1.0597 0.519027,-1.8166 -7e-6,-0.5623 -0.108137,-1.0813 -0.324392,-1.5571 -0.194641,-0.4974 -0.573098,-1.1246 -1.135371,-1.8815 l -2.951966,-3.9576 c -0.367646,-0.4974 -0.670411,-0.9515 -0.908297,-1.3624 -0.237888,-0.4325 -0.42171,-0.8434 -0.551466,-1.2327 -0.129757,-0.3893 -0.227074,-0.7569 -0.291952,-1.1029 -0.04325,-0.346 -0.06488,-0.7029 -0.06488,-1.0705 0,-1.4706 0.475774,-2.66 1.427324,-3.5683 0.973173,-0.9299 2.422121,-1.3949 4.34685,-1.3949"
         id="path3531"
         style="font-weight:bold;fill:#000000;-inkscape-font-specification:Yanone Kaffeesatz Bold" />
      <path
         d="m 43.806844,1017.4456 -1.946351,0 c 0,-0.692 0,-1.2435 0,-1.6544 0.02163,-0.4109 0.05407,-0.7136 0.09732,-0.9083 0.04325,-0.2162 0.118943,-0.3568 0.227074,-0.4217 0.10813,-0.065 0.248699,-0.097 0.421709,-0.097 l 1.20025,0 0,-4.7037 c -3e-6,-0.2811 0.05406,-0.4974 0.162196,-0.6488 0.108128,-0.1513 0.291949,-0.2594 0.551466,-0.3243 0.281136,-0.087 0.64878,-0.1298 1.102932,-0.1298 0.47577,-0.022 1.0813,-0.032 1.816594,-0.032 l 0,5.839 2.660012,0 c -8e-6,0.6921 -0.01082,1.2435 -0.03244,1.6544 -8e-6,0.4109 -0.02163,0.7245 -0.06488,0.9407 -0.04326,0.2163 -0.118952,0.3569 -0.227074,0.4218 -0.08651,0.043 -0.21627,0.065 -0.389271,0.065 l -1.94635,0 0,8.8235 c -6e-6,0.3676 0.03243,0.7245 0.09732,1.0705 0.06487,0.3244 0.291947,0.4866 0.681223,0.4866 0.540646,0 1.102924,-0.1406 1.686837,-0.4217 0.04324,0.2378 0.0865,0.4974 0.129757,0.7785 0.06487,0.2811 0.09731,0.6055 0.09732,0.9732 -8e-6,0.3892 -0.09733,0.7028 -0.291952,0.9407 -0.194643,0.2163 -0.443343,0.3893 -0.746101,0.519 -0.281147,0.1298 -0.594725,0.2055 -0.940736,0.2271 -0.346025,0.043 -0.670416,0.065 -0.973176,0.065 -0.713667,0 -1.297571,-0.1081 -1.751715,-0.3244 -0.432526,-0.1946 -0.767731,-0.4866 -1.005615,-0.8759 -0.23789,-0.3892 -0.400086,-0.865 -0.486588,-1.4273 -0.08651,-0.5839 -0.129759,-1.2327 -0.129756,-1.9463 l 0,-8.8884"
         id="path3533"
         style="font-weight:bold;fill:#000000;-inkscape-font-specification:Yanone Kaffeesatz Bold" />
      <path
         d="m 51.825911,1015.4993 c 0.562277,-0.3893 1.221873,-0.7245 1.978789,-1.0056 0.778537,-0.3028 1.621955,-0.4542 2.530256,-0.4542 0.886665,0 1.470569,0.1298 1.751716,0.3893 0.281132,0.2595 0.421702,0.6704 0.421709,1.2327 -7e-6,0.2162 -0.02163,0.519 -0.06488,0.9083 -0.04326,0.3893 -0.140577,0.7893 -0.291953,1.2002 -0.237894,-0.1081 -0.454155,-0.173 -0.648783,-0.1946 -0.194642,-0.043 -0.378464,-0.065 -0.551466,-0.065 -0.194641,0 -0.421715,0.043 -0.681223,0.1298 -0.259519,0.087 -0.497406,0.2162 -0.713662,0.3892 l -0.03244,11.9052 c -5e-6,0.173 -0.02163,0.3028 -0.06488,0.3893 -0.04326,0.086 -0.183826,0.1514 -0.421709,0.1946 -0.216265,0.022 -0.573096,0.043 -1.070493,0.065 -0.497403,0 -1.211064,0 -2.140985,0 l 0,-15.0842"
         id="path3535"
         style="font-weight:bold;fill:#000000;-inkscape-font-specification:Yanone Kaffeesatz Bold" />
      <path
         d="m 59.515516,1016.1156 c -10e-7,-0.1946 0.03244,-0.4 0.09732,-0.6163 0.0865,-0.2379 0.205448,-0.4109 0.356831,-0.519 0.237886,-0.173 0.778539,-0.3677 1.621959,-0.584 0.843415,-0.2378 1.913907,-0.3568 3.211479,-0.3568 1.492195,0 2.54106,0.292 3.1466,0.8759 0.627148,0.5839 0.940726,1.6111 0.940736,3.0817 l 0,1.5246 c -10e-6,0.93 -10e-6,1.8815 0,2.8547 -10e-6,0.9732 -0.01082,1.9139 -0.03244,2.8222 -1e-5,0.9083 -0.01082,1.7625 -0.03244,2.5627 -0.02164,0.8002 -0.05407,1.503 -0.09732,2.1085 -0.562289,0.3244 -1.243511,0.5731 -2.043669,0.7461 -0.778547,0.1947 -1.654404,0.292 -2.627573,0.292 -0.605536,0 -1.189441,-0.054 -1.751716,-0.1622 -0.540656,-0.1081 -1.027243,-0.3352 -1.459763,-0.6812 -0.410898,-0.346 -0.746102,-0.8543 -1.005614,-1.5247 -0.259515,-0.6704 -0.389271,-1.5679 -0.389271,-2.6924 0,-1.103 0.09732,-2.0004 0.291953,-2.6925 0.21626,-0.7136 0.497399,-1.2651 0.843419,-1.6544 0.346016,-0.3892 0.746098,-0.6487 1.200249,-0.7785 0.454145,-0.1514 0.919106,-0.2271 1.394885,-0.2271 0.237883,0 0.562274,0.032 0.973175,0.097 0.432517,0.065 0.800161,0.1947 1.102932,0.3893 l 0,-2.2383 c -6e-6,-0.4325 -0.108137,-0.7353 -0.324391,-0.9083 -0.194641,-0.1946 -0.540659,-0.2919 -1.038054,-0.292 -0.605536,10e-5 -1.275945,0.065 -2.011229,0.1947 -0.713664,0.1298 -1.340821,0.2919 -1.881472,0.4866 -0.194637,-0.3677 -0.324393,-0.7461 -0.389271,-1.1354 -0.06488,-0.3893 -0.09732,-0.7136 -0.09732,-0.9732 m 5.741734,7.2988 c -0.108137,-0.1081 -0.248706,-0.173 -0.421709,-0.1946 -0.151389,-0.043 -0.291958,-0.065 -0.421709,-0.065 -0.367649,0 -0.648789,0.173 -0.843419,0.5191 -0.194639,0.346 -0.291957,1.038 -0.291952,2.0761 -5e-6,0.7785 0.06487,1.3408 0.194635,1.6868 0.151378,0.3244 0.432517,0.4866 0.843418,0.4866 0.151377,0 0.30276,-0.022 0.454149,-0.065 0.173003,-0.065 0.313572,-0.1514 0.421709,-0.2595 0.02162,-0.173 0.03243,-0.4217 0.03244,-0.7461 0.02162,-0.346 0.03243,-0.7137 0.03244,-1.1029 -6e-6,-0.3893 -6e-6,-0.7894 0,-1.2003 -6e-6,-0.4109 -6e-6,-0.7893 0,-1.1354"
         id="path3537"
         style="font-weight:bold;fill:#000000;-inkscape-font-specification:Yanone Kaffeesatz Bold" />
      <path
         d="m 71.684265,1017.4456 -1.946351,0 c 0,-0.692 0,-1.2435 0,-1.6544 0.02163,-0.4109 0.05406,-0.7136 0.09732,-0.9083 0.04325,-0.2162 0.118943,-0.3568 0.227074,-0.4217 0.10813,-0.065 0.2487,-0.097 0.421709,-0.097 l 1.20025,0 0,-4.7037 c -2e-6,-0.2811 0.05406,-0.4974 0.162196,-0.6488 0.108128,-0.1513 0.29195,-0.2594 0.551466,-0.3243 0.281136,-0.087 0.64878,-0.1298 1.102932,-0.1298 0.47577,-0.022 1.081301,-0.032 1.816594,-0.032 l 0,5.839 2.660013,0 c -9e-6,0.6921 -0.01082,1.2435 -0.03244,1.6544 -9e-6,0.4109 -0.02163,0.7245 -0.06488,0.9407 -0.04326,0.2163 -0.118952,0.3569 -0.227074,0.4218 -0.08651,0.043 -0.216269,0.065 -0.38927,0.065 l -1.946351,0 0,8.8235 c -6e-6,0.3676 0.03243,0.7245 0.09732,1.0705 0.06487,0.3244 0.291946,0.4866 0.681222,0.4866 0.540646,0 1.102925,-0.1406 1.686838,-0.4217 0.04324,0.2378 0.0865,0.4974 0.129756,0.7785 0.06487,0.2811 0.09731,0.6055 0.09732,0.9732 -9e-6,0.3892 -0.09733,0.7028 -0.291953,0.9407 -0.194643,0.2163 -0.443343,0.3893 -0.746101,0.519 -0.281147,0.1298 -0.594725,0.2055 -0.940736,0.2271 -0.346024,0.043 -0.670416,0.065 -0.973175,0.065 -0.713667,0 -1.297572,-0.1081 -1.751716,-0.3244 -0.432526,-0.1946 -0.76773,-0.4866 -1.005615,-0.8759 -0.237889,-0.3892 -0.400085,-0.865 -0.486587,-1.4273 -0.08651,-0.5839 -0.129759,-1.2327 -0.129757,-1.9463 l 0,-8.8884"
         id="path3539"
         style="font-weight:bold;fill:#000000;-inkscape-font-specification:Yanone Kaffeesatz Bold" />
      <path
         d="m 88.956099,1029.6752 c -0.519037,0.3028 -1.211072,0.5839 -2.076107,0.8434 -0.843427,0.2595 -1.751723,0.3893 -2.724891,0.3893 -0.973181,0 -1.773346,-0.1081 -2.4005,-0.3244 -0.62716,-0.2163 -1.135373,-0.5298 -1.524641,-0.9407 -0.367646,-0.4326 -0.627159,-0.9516 -0.77854,-1.5571 -0.129758,-0.6055 -0.194636,-1.2868 -0.194635,-2.0437 l 0,-11.0293 c -10e-7,-0.1514 0.01081,-0.2703 0.03244,-0.3568 0.04325,-0.1082 0.183821,-0.173 0.421709,-0.1947 0.237886,-0.043 0.605529,-0.065 1.102932,-0.065 0.519024,-0.022 1.254311,-0.032 2.205864,-0.032 l 0,11.9052 c -4e-6,0.4974 0.06487,0.8758 0.194635,1.1354 0.129752,0.2595 0.421704,0.3892 0.875858,0.3892 0.216255,0 0.432516,-0.022 0.648784,-0.065 0.216254,-0.065 0.410889,-0.1838 0.583905,-0.3568 l 0,-12.3593 c -7e-6,-0.1514 0.01081,-0.2703 0.03244,-0.3568 0.04324,-0.1082 0.173002,-0.173 0.38927,-0.1947 0.23788,-0.043 0.594711,-0.065 1.070493,-0.065 0.497392,-0.022 1.211053,-0.032 2.140986,-0.032 l 0,15.3113"
         id="path3541"
         style="font-weight:bold;fill:#000000;-inkscape-font-specification:Yanone Kaffeesatz Bold" />
      <path
         d="m 96.881903,1018.4188 c -7e-6,-0.5406 -0.06488,-0.8867 -0.194635,-1.038 -0.108138,-0.1514 -0.346025,-0.2271 -0.713662,-0.2271 -0.216267,0 -0.432528,0.043 -0.648784,0.1297 -0.216266,0.065 -0.410901,0.1514 -0.583905,0.2595 l 0,12.3918 c -5e-6,0.173 -0.02163,0.3028 -0.06488,0.3893 -0.04326,0.086 -0.183827,0.1514 -0.42171,0.1946 -0.237891,0.022 -0.605535,0.043 -1.102932,0.065 -0.475777,0 -1.156999,0 -2.043668,0 l 0,-15.4735 c 0.627156,-0.3027 1.373256,-0.5514 2.238303,-0.7461 0.865041,-0.2162 1.78415,-0.3244 2.75733,-0.3244 1.124551,0 2.022034,0.2812 2.692452,0.8434 0.56227,-0.2595 1.178614,-0.4649 1.849038,-0.6163 0.69202,-0.1514 1.35162,-0.2271 1.97879,-0.2271 0.82178,0 1.47056,0.097 1.94635,0.292 0.49738,0.1946 0.86503,0.4866 1.10293,0.8758 0.2595,0.3677 0.42169,0.8326 0.48659,1.3949 0.0865,0.5407 0.12974,1.157 0.12975,1.849 l 0,11.4835 c -1e-5,0.173 -0.0324,0.3028 -0.0973,0.3893 -0.0433,0.086 -0.18384,0.1514 -0.42171,0.1946 -0.21628,0.022 -0.57311,0.043 -1.0705,0.065 -0.49741,0 -1.17863,0 -2.04366,0 l 0,-12.0349 c -2e-5,-0.4974 -0.0649,-0.8434 -0.19464,-1.0381 -0.12977,-0.1946 -0.37847,-0.2919 -0.7461,-0.2919 -0.45416,0 -0.85424,0.097 -1.20025,0.2919 l 0,12.4242 c -1e-5,0.173 -0.0216,0.3028 -0.0649,0.3893 -0.0216,0.086 -0.15139,0.1514 -0.38927,0.1946 -0.216271,0.022 -0.573101,0.043 -1.070493,0.065 -0.475783,0 -1.178631,0 -2.108546,0 l 0,-12.1647"
         id="path3543"
         style="font-weight:bold;fill:#000000;-inkscape-font-specification:Yanone Kaffeesatz Bold" />
    </g>
    <g
       id="g3935">
      <path
         d="m 123.8125,121.25 c -2.75655,0 -4.7272,1.09365 -5.9375,3.3125 -1.21496,2.19843 -1.84375,5.54272 -1.84375,10 0,2.09681 0.13723,3.9747 0.34375,5.65625 0.20566,1.64552 0.57608,3.06308 1.125,4.21875 l -0.0312,0 c 0.57671,1.12456 1.34052,1.96226 2.3125,2.5625 0.9924,0.59543 2.30436,0.90625 3.90625,0.90625 1.57167,0 2.88212,-0.31058 3.875,-0.90625 1.02727,-0.62762 1.76606,-1.53691 2.34375,-2.75 a 0.22964678,0.22964678 0 0 1 0.0625,0 c 0.60755,-1.24432 0.98357,-2.83744 1.21875,-4.71875 0.2652,-1.88564 0.43749,-4.05166 0.4375,-6.59375 -1e-5,-3.86088 -0.66641,-6.78953 -1.90625,-8.75 -1.20568,-1.95206 -3.11359,-2.9375 -5.90625,-2.9375 z m 0.25,3.90625 c 0.56678,0 1.05912,0.19686 1.4375,0.5625 0.3124,0.30178 0.51642,0.73215 0.6875,1.25 L 126,127.34375 121.03125,136.5 c -0.006,-0.56368 0,-1.10974 0,-1.75 0,-1.4257 0.003,-2.71128 0.0625,-3.875 0.0599,-1.1696 0.19385,-2.1809 0.40625,-3 0.21373,-0.82462 0.52337,-1.49031 0.90625,-1.96875 0.42229,-0.4872 1.00344,-0.75 1.65625,-0.75 z m 2.75,7.625 c 1.6e-4,0.0543 0,0.10142 0,0.15625 -2e-5,2.02209 -0.068,3.72066 -0.1875,5.09375 -0.11796,1.35639 -0.29245,2.46604 -0.53125,3.34375 -0.004,0.0132 0.004,0.0192 0,0.0312 -0.20755,0.81681 -0.52643,1.42141 -0.90625,1.84375 -0.006,0.012 0.006,0.024 0,0.0312 -0.36049,0.38126 -0.81908,0.625 -1.3125,0.625 -0.62324,0 -1.15166,-0.12641 -1.5625,-0.46875 -0.28194,-0.25631 -0.51742,-0.59978 -0.6875,-1.0625 l 0.21875,-0.40625 4.96875,-9.1875 z"
         transform="translate(0,897.36218)"
         id="path3430"
         style="font-size:32.43917847px;font-style:normal;font-variant:normal;font-weight:bold;font-stretch:normal;text-align:center;line-height:125%;writing-mode:lr-tb;text-anchor:middle;fill:#000000;fill-opacity:1;fill-rule:evenodd;stroke:none;font-family:Yanone Kaffeesatz;-inkscape-font-specification:Yanone Kaffeesatz Bold" />
    </g>
  </g>
</svg>
