<?xml version="1.0" encoding="UTF-8" standalone="no"?>
<!-- Created with Inkscape (http://www.inkscape.org/) -->

<svg
   xmlns:dc="http://purl.org/dc/elements/1.1/"
   xmlns:cc="http://creativecommons.org/ns#"
   xmlns:rdf="http://www.w3.org/1999/02/22-rdf-syntax-ns#"
   xmlns:svg="http://www.w3.org/2000/svg"
   xmlns="http://www.w3.org/2000/svg"
   xmlns:inkscape="http://www.inkscape.org/namespaces/inkscape"
   version="1.1"
   width="768"
   height="768"
   id="svg3434">
  <defs
     id="defs3436">
    <inkscape:path-effect
       effect="spiro"
       id="path-effect3295" />
    <inkscape:path-effect
       effect="spiro"
       id="path-effect4388" />
    <inkscape:path-effect
       effect="spiro"
       id="path-effect3336" />
    <inkscape:path-effect
       effect="spiro"
       id="path-effect3315" />
    <inkscape:path-effect
       effect="spiro"
       id="path-effect3420" />
  </defs>
  <metadata
     id="metadata3439">
    <rdf:RDF>
      <cc:Work
         rdf:about="">
        <dc:format>image/svg+xml</dc:format>
        <dc:type
           rdf:resource="http://purl.org/dc/dcmitype/StillImage" />
        <dc:title></dc:title>
      </cc:Work>
    </rdf:RDF>
  </metadata>
  <g
     transform="translate(0,-284.36218)"
     id="layer1">
    <g
       transform="matrix(7.0835212,0,0,7.083522,-164.97276,-6127.1349)"
       id="layer1-6">
      <g
         transform="matrix(0.41277208,0,0,0.41277208,1999.2386,714.04405)"
         id="g4357">
        <path
           d="m -4655.6895,462.92952 c -72.4123,0 -131.3323,58.91997 -131.3323,131.33231 0,72.41239 58.92,131.33236 131.3323,131.33236 72.4124,0 131.3324,-58.91997 131.3324,-131.33236 0,-72.41234 -58.92,-131.33231 -131.3324,-131.33231 z m 0,20.43304 c 61.366,0 110.8993,49.53328 110.8993,110.89927 0,61.36604 -49.5333,110.89932 -110.8993,110.89936 -61.366,0 -110.8993,-49.53332 -110.8993,-110.89936 0,-61.36599 49.5333,-110.89931 110.8993,-110.89927 z"
           id="path4359"
           style="font-size:medium;font-style:normal;font-variant:normal;font-weight:normal;font-stretch:normal;text-indent:0;text-align:start;text-decoration:none;line-height:normal;letter-spacing:normal;word-spacing:normal;text-transform:none;direction:ltr;block-progression:tb;writing-mode:lr-tb;text-anchor:start;baseline-shift:baseline;color:#000000;fill:#000000;fill-opacity:1;stroke:none;stroke-width:48.04657745;marker:none;visibility:visible;display:inline;overflow:visible;enable-background:accumulate;font-family:Sans;-inkscape-font-specification:Sans" />
        <path
           d="m -4663.8371,558.69661 c -3.8069,-4.71231 -6.7547,-10.11651 -8.6556,-15.86845 6.1302,2.63232 12.8036,3.99171 19.475,3.9671 6.5512,-0.0242 13.0946,-1.38224 19.1143,-3.96713 -0.711,6.29502 -3.2438,12.37363 -7.213,17.31104 -3.0229,3.76022 -6.8647,6.85853 -11.18,9.01619 -4.3565,-2.86193 -8.2651,-6.40412 -11.5407,-10.45875 z m 28.8876,96.26242 -21.5238,-18.8316 -20.3125,18.69972 c 5.9622,2.31324 12.3072,3.63633 18.697,3.89878 7.8616,0.3229 15.786,-0.96713 23.1393,-3.7669 z m 5.3985,-15.07685 c 3.1156,6.95689 4.6444,14.61887 4.4373,22.23874 -9.8167,4.51535 -20.641,6.82388 -31.4457,6.70652 -10.6959,-0.11617 -21.3596,-2.60875 -30.9988,-7.24581 -0.763,-8.29247 0.047,-16.72691 2.3739,-24.72268 1.5681,-5.38803 3.811,-10.55787 6.2905,-15.59194 2.2224,-4.51217 4.6396,-8.92842 7.2425,-13.23233 -6.7943,2.26003 -13.0156,6.22086 -17.9383,11.42056 -3.5235,3.72178 -6.3731,8.0477 -8.6878,12.62036 -5.3367,10.54272 -7.8491,22.58165 -6.6209,34.33412 0.3033,2.90202 0.8299,5.78066 1.5736,8.60211 14.9231,8.12093 31.9352,12.36437 48.9241,12.20352 16.3555,-0.15485 32.657,-4.38539 47.0237,-12.20352 2.5763,-14.20128 0.7613,-29.168 -5.1348,-42.34184 -4.8405,-10.81542 -12.2825,-20.28871 -20.5309,-28.79567 -5.5779,-5.75273 -11.5474,-11.10991 -17.2983,-16.68965 -4.9031,-4.75719 -9.6476,-9.67648 -14.2746,-14.70267 -6.6691,-7.24449 -13.1885,-14.85581 -17.2132,-23.84256 -3.1156,-6.95689 -4.6444,-14.61887 -4.4373,-22.23874 9.8167,-4.51534 20.6409,-6.82386 31.4456,-6.70652 10.696,0.11616 21.3597,2.60874 30.9989,7.24582 0.763,8.29247 -0.047,16.72691 -2.3739,24.72268 -1.5681,5.38802 -3.811,10.55787 -6.2905,15.59193 -2.2224,4.51218 -4.6396,8.92843 -7.2426,13.23233 6.7943,-2.25998 13.0157,-6.22081 17.9384,-11.42056 3.5235,-3.72178 6.3731,-8.0477 8.6877,-12.62036 5.3366,-10.54274 7.849,-22.58164 6.6209,-34.33411 -0.3033,-2.90201 -0.8298,-5.78067 -1.5735,-8.60212 -14.9232,-8.12094 -31.9352,-12.36439 -48.9242,-12.20352 -16.3554,0.15487 -32.6569,4.38541 -47.0236,12.20352 -2.5764,14.20127 -0.7614,29.16801 5.1347,42.34185 4.8406,10.81542 12.2826,20.28868 20.531,28.79566 5.5778,5.75272 11.5473,11.10993 17.2982,16.68966 4.9031,4.7572 9.6476,9.67648 14.2746,14.70266 6.6691,7.24449 13.1886,14.8558 17.2133,23.84256 z"
           id="path4361"
           style="fill:#000000;fill-opacity:1;fill-rule:evenodd;stroke:none" />
      </g>
    </g>
  </g>
</svg>
