<?xml version="1.0" encoding="UTF-8" standalone="no"?>
<!-- Created with Inkscape (http://www.inkscape.org/) -->

<svg
   xmlns:dc="http://purl.org/dc/elements/1.1/"
   xmlns:cc="http://creativecommons.org/ns#"
   xmlns:rdf="http://www.w3.org/1999/02/22-rdf-syntax-ns#"
   xmlns:svg="http://www.w3.org/2000/svg"
   xmlns="http://www.w3.org/2000/svg"
   xmlns:sodipodi="http://sodipodi.sourceforge.net/DTD/sodipodi-0.dtd"
   xmlns:inkscape="http://www.inkscape.org/namespaces/inkscape"
   width="286.82455"
   height="254.15823"
   id="svg3093"
   version="1.1"
   inkscape:version="0.48.5 r10040"
   sodipodi:docname="PoisonBean.svg">
  <defs
     id="defs3095" />
  <sodipodi:namedview
     id="base"
     pagecolor="#ffffff"
     bordercolor="#666666"
     borderopacity="1.0"
     inkscape:pageopacity="0.0"
     inkscape:pageshadow="2"
     inkscape:zoom="1.4"
     inkscape:cx="144.77888"
     inkscape:cy="81.008832"
     inkscape:document-units="px"
     inkscape:current-layer="layer1"
     showgrid="false"
     fit-margin-top="0"
     fit-margin-left="0"
     fit-margin-right="0"
     fit-margin-bottom="0"
     inkscape:window-width="728"
     inkscape:window-height="670"
     inkscape:window-x="230"
     inkscape:window-y="39"
     inkscape:window-maximized="0" />
  <metadata
     id="metadata3098">
    <rdf:RDF>
      <cc:Work
         rdf:about="">
        <dc:format>image/svg+xml</dc:format>
        <dc:type
           rdf:resource="http://purl.org/dc/dcmitype/StillImage" />
        <dc:title />
      </cc:Work>
    </rdf:RDF>
  </metadata>
  <g
     inkscape:label="Layer 1"
     inkscape:groupmode="layer"
     id="layer1"
     transform="translate(-8.0162956,-793.81526)">
    <path
       id="path4128-9"
       style="fill:#000000"
       d="m 57.819219,939.44798 c -4.090495,-1.36364 -10.244456,-3.29818 -13.675468,-4.29896 -3.431011,-1.0008 -7.156486,-2.5632 -8.27883,-3.47201 0,0 -1.907431,-0.78735 -2.04062,-1.65241 -0.222654,-1.44614 1.903459,-2.76166 2.422466,-3.66059 2.365908,-4.09788 4.655492,-4.28579 4.273986,-0.71042 -0.221954,2.08013 0.291594,2.38601 8.350588,4.97364 10.730731,3.4455 19.766999,7.88741 20.156134,9.90804 0.415612,2.15807 -2.24846,1.89964 -11.208256,-1.08729 z m 207.924001,79.55162 c -3.26687,-2.5697 -2.98996,-4.3114 0.68536,-4.3114 4.28562,0 5.75889,0.7834 5.75889,3.0624 0,1.7738 -1.45315,3.0624 -3.45342,3.0624 -0.37703,0 -1.72289,-0.816 -2.99083,-1.8134 z m -20.67992,19.5885 c -2.74628,-1.133 -11.29315,-7.3298 -15.83621,-11.482 -2.60301,-2.379 -7.29044,-6.0757 -10.41654,-8.215 -5.67394,-3.8829 -7.05421,-6.1024 -4.14361,-6.6629 2.07955,-0.4005 6.3705,2.3553 17.14255,11.0094 13.023,10.4625 12.23692,10.0732 18.90056,9.3596 5.42518,-0.581 5.72792,-0.5166 5.72792,1.2183 0,3.1956 -7.53433,6.3569 -11.37467,4.7726 z m 21.04198,-1.6899 c 3.1086,-4.1669 3.64488,-4.5058 7.75182,-4.9005 5.15587,-0.4954 11.1057,-4.0273 12.36519,-7.34 1.10626,-2.9097 1.06759,-7.6374 -0.0831,-10.1631 -1.2804,-2.8105 -6.20897,-5.995 -11.33658,-7.325 -2.37195,-0.6153 -9.93513,-1.5529 -16.80708,-2.0837 -33.68812,-2.6019 -39.38883,-3.8633 -57.38553,-12.6984 -7.07144,-3.47157 -27.62235,-14.7066 -45.66865,-24.96674 C 136.89502,957.16063 115.23946,945.14318 106.81786,940.71532 80.534403,926.89617 70.794176,919.489 61.5865,906.31812 53.718058,895.06291 49.369778,891.61041 44.412202,892.68188 c -6.82027,1.47404 -11.544972,4.926 -16.57916,12.11309 -0.865505,1.23565 -3.174111,2.69917 -5.228826,3.31479 -4.628289,1.38666 -9.795946,6.48751 -12.537269,12.37518 -3.1381062,6.73985 -2.7343414,9.6295 2.064602,14.77614 2.783838,2.98553 7.541422,4.56589 20.313647,6.74774 29.948974,5.1161 71.424934,22.24922 122.058644,50.42067 24.88474,13.84531 40.74869,21.94961 46.0435,23.52201 4.96284,1.4738 12.92185,6.8758 22.64183,15.3677 17.49306,15.2827 24.32799,18.6231 32.09821,15.6873 3.10939,-1.1748 6.55591,-4.3952 10.8179,-10.1083 z"
       inkscape:connector-curvature="0" />
    <path
       id="path4118-2"
       style="fill:#000000"
       d="m 25.663985,1010.6088 c -2.183139,-0.8809 -1.218547,-4.4063 1.515487,-5.5388 3.174908,-1.3151 5.265549,-0.6535 5.265549,1.6664 0,2.7919 -3.916293,5.0284 -6.781036,3.8724 z m 15.56995,21.1886 c -1.15328,-1.3896 -3.458486,-10.2313 -3.507913,-13.4547 -0.05372,-3.5023 2.75877,-1.8403 5.672279,3.3519 2.907078,5.1808 4.064525,5.6169 10.702286,4.0329 2.483135,-0.5926 2.84366,-0.4578 2.84366,1.063 0,0.958 -1.211443,2.7611 -2.692054,4.0069 -2.155249,1.8135 -3.616917,2.2652 -7.330124,2.2652 -2.97838,0 -5.013824,-0.4527 -5.688134,-1.2652 z m 9.947604,8.2909 c 5.74868,-1.9779 12.477316,-5.914 23.699642,-13.8642 8.932802,-6.3282 16.380313,-10.0392 46.985669,-23.4126 l 21.61146,-9.44341 -23.47082,-13.67877 c -0.37899,0 -5.56886,2.32089 -11.53305,5.15754 -24.476861,11.64153 -29.77054,12.71457 -62.904834,12.75101 -25.408882,0.0279 -25.877876,0.061 -30.053296,2.11651 -7.2455678,3.56692 -9.5160773,10.02692 -5.6018272,15.93812 1.3738812,2.0748 4.0263692,3.9633 8.7791402,6.2503 6.196502,2.9818 6.966644,3.6416 8.542976,7.3191 2.595273,6.0545 4.792917,8.702 8.918515,10.7442 4.646945,2.3002 8.602612,2.3323 15.026425,0.1222 z"
       inkscape:connector-curvature="0" />
    <path
       id="path3212-4-0"
       style="fill:#000000"
       d="m 234.56364,946.11001 c 0,-2.13011 2.1561,-3.11525 12.77652,-5.83765 13.90823,-3.56519 15.14724,-4.10412 15.74436,-6.8486 0.87747,-4.033 1.20579,-4.63608 2.32236,-4.2664 0.60136,0.1991 1.44195,1.99133 1.86806,3.98278 0.90481,4.22848 -0.80585,7.76541 -4.06696,8.40885 -1.07674,0.21245 -7.08264,1.59678 -13.34648,3.0763 -12.67933,2.99487 -15.29786,3.24901 -15.29786,1.48472 z m -38.92577,24.06871 c 27.77118,-10.87572 50.33628,-17.15207 74.42823,-20.70171 9.36658,-1.38005 16.73953,-2.91654 18.30539,-3.81473 10.73284,-6.15643 7.71577,-20.54635 -6.12183,-29.19823 -4.52685,-2.83037 -7.05867,-5.7073 -7.81001,-8.87447 -0.87786,-3.70046 -5.25324,-7.32886 -10.77239,-8.93333 -7.54314,-2.19285 -9.01598,-1.39088 -17.90345,9.74896 -4.21177,5.2792 -9.34077,11.1139 -11.39766,12.96599 -8.17276,7.35895 -21.83686,15.26067 -42.33781,24.48331 -18.85285,8.48123 -20.67665,9.41557 -32.50706,16.51357 l 21.67954,12.88052 c 0.72772,0.0362 7.22439,-2.24523 14.43705,-5.06988 z"
       inkscape:connector-curvature="0"
       sodipodi:nodetypes="sssssssssssssssssccs" />
    <path
       style="font-size:medium;font-style:normal;font-variant:normal;font-weight:normal;font-stretch:normal;text-indent:0;text-align:start;text-decoration:none;line-height:normal;letter-spacing:normal;word-spacing:normal;text-transform:none;direction:ltr;block-progression:tb;writing-mode:lr-tb;text-anchor:start;baseline-shift:baseline;color:#000000;fill:#000000;fill-opacity:1;fill-rule:nonzero;stroke:none;stroke-width:0;marker:none;visibility:visible;display:inline;overflow:visible;enable-background:accumulate;font-family:Sans;-inkscape-font-specification:Sans"
       d="m 170.21481,794.2558 c -10.00964,1.13959 -20.15039,4.4341 -29.22358,9.63014 -2.82237,1.61632 -8.10742,5.15164 -11.87537,7.92067 -29.812842,21.90917 -44.520036,55.17939 -37.301153,85.32745 2.017462,8.42547 3.805925,13.18284 6.604091,15.07247 1.148149,0.77536 2.492462,1.15351 4.424382,0.68238 1.93193,-0.47113 4.66414,-1.61932 9.52087,-3.75487 18.51801,-8.14254 29.48843,-18.09981 45.29613,-41.06415 5.5382,-8.04549 11.56855,-16.56205 13.27037,-18.74942 8.38937,-10.78296 20.23842,-20.44207 34.48192,-28.06947 4.5892,-2.45751 7.04352,-3.77405 8.51906,-4.84597 1.47554,-1.07193 2.02979,-2.23487 2.27439,-3.37808 0.20856,-0.97474 0.32687,-1.77368 0.18665,-2.61465 -0.14023,-0.84097 -0.51336,-1.55184 -1.01737,-2.29708 -1.90229,-2.81282 -6.2355,-5.54056 -11.42045,-8.06357 -5.18495,-2.52301 -11.17253,-4.64249 -16.12625,-5.44941 -5.65096,-0.9205 -11.6079,-1.0302 -17.61369,-0.34644 z"
       id="path3785"
       inkscape:connector-curvature="0"
       sodipodi:nodetypes="sssssssssssssssss" />
    <path
       style="font-size:medium;font-style:normal;font-variant:normal;font-weight:normal;font-stretch:normal;text-indent:0;text-align:start;text-decoration:none;line-height:normal;letter-spacing:normal;word-spacing:normal;text-transform:none;direction:ltr;block-progression:tb;writing-mode:lr-tb;text-anchor:start;baseline-shift:baseline;color:#000000;fill:#000000;fill-opacity:1;fill-rule:nonzero;stroke:none;stroke-width:0;marker:none;visibility:visible;display:inline;overflow:visible;enable-background:accumulate;font-family:Sans;-inkscape-font-specification:Sans"
       d="m 225.39877,826.037 c -1.8587,0.17569 -4.15988,0.94437 -7.47116,2.30635 -10.67165,4.3894 -21.33696,11.34032 -30.25137,19.69617 -6.66561,6.24795 -10.30631,10.84197 -20.21056,25.5775 -12.28895,18.28349 -18.13482,25.07826 -28.58036,33.14268 -6.94014,5.35808 -9.48679,6.93004 -18.57519,11.56574 -2.38415,1.21609 -4.33383,2.32107 -5.78873,3.26017 -0.72745,0.46955 -1.32712,0.88646 -1.80753,1.28557 -0.48042,0.39911 -0.8533,0.72455 -1.13376,1.23551 -0.8395,1.52943 -1.07946,3.27189 -0.5344,4.88484 0.54506,1.61295 1.71441,3.00253 3.42916,4.42284 8.13122,6.73506 20.44532,11.09744 32.9223,11.77698 6.73338,0.36671 19.46763,-1.89935 26.95008,-4.74204 16.617,-6.31306 34.29915,-19.83359 46.03599,-35.16904 10.21882,-13.352 16.36321,-30.25974 16.85748,-46.53624 0.15842,-5.21659 -0.74767,-11.97408 -2.1219,-17.93616 -0.68712,-2.98104 -1.49411,-5.75598 -2.3607,-8.04399 -0.86658,-2.28801 -1.7391,-4.07243 -2.85494,-5.19263 -1.14419,-1.14867 -2.64571,-1.70994 -4.50441,-1.53425 z"
       id="path3806"
       inkscape:connector-curvature="0"
       sodipodi:nodetypes="sssssssssssssssssss" />
  </g>
</svg>
